<svg xmlns="http://www.w3.org/2000/svg" viewBox="0 0 139.549 51.352"><path d="M20.654 51.048C12.526 49.357 5.997 44.271 2.363 36.8.435 32.837.018 30.889.002 25.777c-.012-3.754.071-4.678.593-6.597A26.34 26.34 0 0 1 19.181.593C21.1.072 22.024-.011 25.778.001c5.098.016 7.068.433 10.98 2.324 6.799 3.286 11.619 8.96 13.787 16.233.85 2.85 1.154 8.199.646 11.35-1.56 9.673-8.795 17.761-18.457 20.636-1.949.58-2.968.707-6.294.788-2.755.067-4.524-.02-5.786-.282zm10.945-1.48c13.388-3.345 21.31-16.697 17.894-30.16-2.09-8.24-8.447-14.802-16.845-17.387C26.02-.02 18.106 1.129 12.151 4.997c-2.445 1.589-6.409 5.756-7.782 8.181C1.746 17.815.554 23.47 1.167 28.377c.413 3.311 1.53 6.753 3.104 9.572 1.747 3.128 5.919 7.298 9.072 9.067 2.538 1.424 6.298 2.724 8.94 3.091 2.547.354 6.707.114 9.316-.538zm-8.236-1.896l-.034-1.654-.261 1.521c-.294 1.713-.771 1.978-1.194.661-.273-.852-.276-.853-.303-.132-.017.458-.174.728-.424.728-.476 0-.478-.038-.096-1.94.328-1.634.758-1.909 1.207-.772l.288.728.028-.702c.027-.669.081-.696 1.153-.56 1.495.19 1.786.469 1.786 1.709 0 1.466-.387 2.067-1.332 2.067-.782 0-.785-.005-.818-1.654zm1.357-.346c0-.501-.119-.91-.265-.91s-.265.483-.265 1.074c0 .649.105 1.009.265.91.146-.09.265-.573.265-1.074zm1.058.185v-1.815l1.654-.153c1.993-.185 2.317.047 2.514 1.8.152 1.346-.099 1.708-1.186 1.716-.61.004-.643-.07-1.016-2.245-.1-.582-.236-.91-.302-.728a.56.56 0 0 1-.495.331c-.206 0-.375.119-.375.265s.179.265.397.265a.4.4 0 0 1 .397.397.4.4 0 0 1-.397.397.4.4 0 0 0-.397.397c0 .22.235.397.529.397s.529.176.529.397c0 .277-.279.397-.926.397h-.926zm3.353-.202c-.265-1.633-.712-1.663-.509-.033.068.546.245.992.394.992.163 0 .208-.381.115-.959zm-10.468.862c-.254-.306-.232-.696.107-1.86.235-.81.531-1.536.657-1.614.461-.285.514.366.133 1.622-.466 1.537-.454 1.42-.147 1.42.137 0 .406-.556.598-1.236.449-1.591 1.164-1.955.887-.452-.391 2.12-1.422 3.098-2.235 2.12zm13.458-1.118c-.187-.668-.495-1.274-.683-1.346-.271-.104-.276-.239-.028-.637.174-.278.395-.506.492-.506.167 0 1.284 3.037 1.284 3.491 0 .117-.163.213-.362.213-.205 0-.51-.528-.703-1.215zm-15.704.283c-.524-.524-.531-.374.078-1.795.578-1.347.876-1.607 1.587-1.381.805.256.874.931.228 2.232-.658 1.325-1.229 1.61-1.894.944zm1.291-1.358c.356-.851.36-1.466.009-1.114-.343.343-.908 2.081-.677 2.081.146 0 .446-.435.668-.967zm16.068 1.451c-.492-.492-.39-.827.204-.672.335.088.529.008.529-.217s-.268-.337-.714-.306c-.557.039-.771-.107-.972-.662-.295-.816.123-1.537.892-1.537.626 0 1.76 2.578 1.392 3.163-.337.536-.924.638-1.331.231zm.204-2.056c0-.137-.119-.323-.265-.412s-.265.022-.265.249.119.412.265.412.265-.112.265-.249zm1.828 1.241c-.014-.182-.005-.825.018-1.428.047-1.211-.367-1.75-.629-.818-.155.551-.186.559-.448.115-.203-.345-.193-.583.037-.86.827-.996 2.031.056 1.738 1.518-.137.686-.093.758.37.611.793-.252.665.514-.148.885-.844.384-.908.383-.938-.024zm-21.782-.428c-.159-.257 1.368-3.21 1.659-3.21.346 0 1.362.822 1.362 1.102 0 .163-.268.211-.645.116-.72-.181-1.211.283-.562.532.615.236.501.716-.131.551-.397-.104-.623.031-.836.498-.302.663-.601.808-.847.411zm23.658-1.755c-.315-.509-.741-.926-.948-.926-.407 0-.466-.25-.215-.904.257-.671.5-.506 1.522 1.033 1.082 1.63 1.114 1.724.588 1.724-.206 0-.633-.417-.948-.926zm-16.007-.565c-6.161-1.296-11.715-6.262-13.75-12.293-.974-2.888-1.216-7.325-.552-10.16 1.214-5.192 5.015-9.992 9.805-12.386 3.168-1.583 4.604-1.903 8.467-1.882 2.985.016 3.72.111 5.556.721 2.918.968 5.203 2.369 7.424 4.552 4.391 4.316 6.318 10.167 5.316 16.14-1.093 6.516-5.517 12.039-11.549 14.422-3.259 1.287-7.247 1.618-10.716.888zm8.467-3.049l1.058-.356.07-8.003.07-8.003h-2.253-2.253v-6.202c0-3.411.104-6.266.23-6.344.199-.123 1.233.101 3.672.797.546.156.595.082.595-.878 0-.982-.062-1.065-.992-1.337-1.047-.306-2.041-.48-4.101-.721l-1.257-.147v8.342 8.342h2.117 2.117v6.322c0 7.229.257 6.581-2.712 6.833l-1.786.152v.925.925l2.183-.145c1.201-.08 2.659-.305 3.241-.501zm-7.541-15.171c0-8.668-.102-15.478-.232-15.478s-.604.074-1.058.165l-.827.165v15.057 15.057l.595.239c.327.132.804.247 1.058.256.436.016.463-.89.463-15.461zm-4.88-13.567c-.215-.215-2.727 1.775-3.928 3.111-1.439 1.601-2.919 4.382-3.472 6.526-.489 1.896-.525 6.016-.067 7.746.269 1.017.406 1.174 1.047 1.2 1.148.047 1.234-.143.834-1.844-.556-2.363-.647-2.246 1.736-2.246h2.117v5.927 5.927l.86.544.86.544.069-13.657-.054-13.779zm-5.838 11.517c.353-1.767 1.218-4.069 1.922-5.113.97-1.439 1.825-2.494 2.021-2.494.088 0 .16 1.905.16 4.233v4.233h-2.138-2.138zm25.041 13.024c1.701-1.725 3.391-4.559 3.822-6.409.163-.7.129-.728-.876-.728-.978 0-1.064.064-1.344.992-.35 1.161-2.096 4.035-2.451 4.035-.145 0-.241-3.696-.237-9.062l.007-9.062.769.926c.423.509 1.096 1.611 1.497 2.447.698 1.459.769 1.521 1.738 1.521.555 0 1.01-.081 1.01-.179s-.466-1.141-1.035-2.318c-1.088-2.247-3.523-5.182-5.02-6.051l-.824-.478v13.386 13.386l.595-.314c.327-.173 1.385-1.114 2.35-2.093zm-26.494 6.224c0-.542-.132-.664-.728-.675l-.728-.014.595-.415c.351-.245.595-.69.595-1.085 0-.644.02-.652.507-.211.405.366.619.399 1.058.164.611-.327.677-.213.292.507-.188.352-.152.573.132.809.594.493.469.819-.245.639-.492-.124-.676-.035-.812.392-.242.763-.669.693-.669-.11zm31.346-1.213c-.135-.427-.319-.515-.812-.392-.745.187-.806-.019-.203-.684.357-.394.373-.551.095-.887-.465-.56-.169-.771.498-.354.433.27.617.274.872.018.514-.514.771-.379.598.312-.124.493-.035.676.396.813.656.208.476.667-.262.667-.337 0-.514.182-.514.529 0 .695-.446.68-.669-.022zM3.484 33.557c-.364-.364-.197-.551 1.146-1.282.737-.401 1.297-.773 1.244-.826s-.709.065-1.457.263-1.428.292-1.509.211c-.334-.334-.112-.886.447-1.11.572-.23.567-.24-.132-.256-.537-.012-.728-.151-.728-.527 0-.406.299-.572 1.455-.813.8-.166 1.455-.351 1.455-.412s-.714-.035-1.587.056l-1.587.166v-.831c0-.457.119-.831.265-.831s.265.179.265.397a.4.4 0 0 0 .397.397.4.4 0 0 0 .397-.397.4.4 0 0 1 .397-.397c.218 0 .397.175.397.389 0 .237.155.329.397.236.218-.084.397-.378.397-.653 0-.436-.206-.501-1.587-.501-1.495 0-1.587-.037-1.587-.629 0-.911.47-1.16 2.183-1.153 1.648.006 1.945.26.794.681L4.215 26l.692.021c.618.019.71.152.86 1.248.264 1.924.219 2.165-.427 2.29-.51.098-.492.12.132.151.882.044.937.375.132.795-.58.302-.577.307.102.175.558-.108.728-.017.851.453.085.324.039.703-.102.844-.397.397-.307.604.335.772.377.099.497.244.331.401-.338.32-3.383.661-3.637.407zm1.922-.768c0-.073-.059-.132-.132-.132s-.132.06-.132.132.059.132.132.132.132-.06.132-.132zm-1.924-6.907c-.088-.088-.316-.097-.507-.021-.211.084-.148.147.16.16.279.011.435-.051.347-.139zm42.339 6.024c-1.678-.459-2.051-1.09-.661-1.119.856-.018.857-.019.198-.317-.879-.397-.869-.388-.694-.671.185-.299 3.231.489 3.374.873.054.146-.169.303-.497.349-.66.094-.826.577-.198.577a.4.4 0 0 1 .397.397c0 .455.085.459-1.918-.089zm.596-2.353c-1.09-.134-1.589-.489-1.589-1.129 0-.82.636-1.097 1.996-.869 1.421.238 2.015.852 1.546 1.597-.323.513-.596.569-1.954.402zm1.322-.865c0-.146-.208-.266-.463-.268s-.731-.075-1.058-.163c-.342-.092-.595-.041-.595.119 0 .153.387.327.86.385s.949.126 1.058.149.198-.077.198-.222zm-2.646-1.996c0-.336.316-.395 1.765-.331 1.117.05 1.805.2 1.874.409.081.244-.384.331-1.765.331-1.514 0-1.874-.079-1.874-.409zm3.038-.963c-.094-.245-.562-.321-1.586-.257-1.19.074-1.453.015-1.453-.331 0-.333.298-.421 1.427-.421 1.05 0 1.469-.109 1.586-.414.241-.627.692-.185.692.678 0 .818-.447 1.317-.666.744zM3.222 24.524c-1.174-.093-1.573-.373-1.019-.715.479-.296 3.467.178 3.467.55 0 .21-.247.339-.595.311l-1.852-.147zm41.729-1.158c-.269-.849.385-1.293 2.007-1.363 1.386-.06 1.445-.035 1.524.647.057.494-.079.796-.447.993-.721.386-1.08-.201-.419-.685.449-.328.426-.355-.29-.338-.92.022-2.146.461-1.373.492.734.029.56.812-.181.812-.423 0-.705-.192-.821-.559zm-41.502.064c-1.418-.31-1.669-1.887-.301-1.887.756 0 .9.457.226.716-.397.152-.39.191.066.37a4.15 4.15 0 0 0 1.158.218c.504.014.578-.052.331-.299-.449-.449-.394-.738.146-.756.255-.008-.162-.299-.926-.646-.857-.39-1.389-.798-1.389-1.067 0-.365.253-.421 1.567-.346 1.777.102 1.803-.006.137-.572-1.396-.474-1.516-.87-.325-1.078l.87-.152-.728-.207c-.4-.114-.728-.386-.728-.604s.149-.343.331-.278l1.72.61c1.574.557 1.844 1.169.529 1.201l-.86.021.745.272c.495.181.695.403.595.662-.082.215-.15.5-.15.634s-.238.243-.529.243c-.652 0-.672.222-.066.715.304.247.359.421.16.505-.166.071-.242.361-.167.646.284 1.088-.587 1.478-2.412 1.079zm1.427-2.813c0-.073-.059-.132-.132-.132s-.132.06-.132.132.059.132.132.132.132-.06.132-.132zm-.529-.265c0-.073-.059-.132-.132-.132s-.132.06-.132.132.059.132.132.132.132-.06.132-.132zm40.391.906c-.584-.834-.285-1.25 1.224-1.698 1.653-.491 2.041-.499 2.041-.044 0 .214-.577.484-1.455.68-.8.179-1.455.436-1.455.571 0 .3-.14.312 1.505-.126.755-.201 1.44-.299 1.521-.217.349.349.079.587-.976.859l-1.565.418c-.257.074-.607-.11-.84-.443zm-.704-1.91c0-.213.268-.575.595-.805.584-.411.578-.416-.3-.257-1.47.266-.883-.431.94-1.117l1.612-.606.289.634c.386.846.132 1.407-.718 1.587-.593.126-1.231.371-2.22.853-.109.053-.198-.077-.198-.29zm2.646-1.51c0-.146-.112-.265-.249-.265s-.323.119-.412.265.022.265.249.265.412-.119.412-.265zm-3.704-1.062c0-.147.536-.528 1.191-.846s1.191-.726 1.191-.907c0-.692.524-.608.915.148.538 1.04.516 1.17-.16.993-.317-.083-1.014.079-1.577.366-1.128.575-1.559.643-1.559.247zM6.53 15.153c-.764-.442-1.389-.972-1.389-1.176 0-.516.141-.481 1.754.442.782.447 1.421.983 1.421 1.191 0 .517-.187.469-1.786-.457zm35.674.198c-.181-.218-.288-.611-.238-.873.119-.618.904-.631.8-.013-.043.255.047.463.198.463s.276-.225.276-.5c0-.853.878-1.71 1.538-1.5.701.222.831 1.471.154 1.471-.279 0-.37-.144-.264-.419.096-.25.04-.379-.139-.319-.165.055-.433.511-.596 1.014-.327 1.013-1.175 1.344-1.73.675zM7.052 13.969c-1.471-1.03-1.565-1.577-.225-1.31l.828.165-.618-.433c-.398-.279-.526-.525-.362-.689.281-.281 2.964 1.492 2.964 1.959 0 .164-.388.205-.992.105l-.992-.164.735.412c.404.227.665.526.58.664-.244.394-.454.317-1.918-.708zm34.217-.078c-.092-.148.042-.601.297-1.005.462-.732.461-.733-.076-.272-.583.5-1.159.61-1.159.221 0-.133.615-.732 1.368-1.331 1.521-1.211 2.242-1.124 1.409.17l-.477.741.576-.51c.399-.353.661-.425.852-.234.252.252-.182.675-2.315 2.261-.179.133-.377.116-.474-.042zM9.406 12.838c-.464-.294-.145-.846.373-.647.214.082.388.017.388-.144s-.452-.293-1.026-.293c-1.165 0-1.746-.51-1.492-1.31.111-.35.399-.542.816-.542.752 0 .843.387.181.773-.376.219-.279.271.51.278.889.007 1.805.537 1.805 1.044 0 .209-.877 1.084-1.079 1.076-.061-.002-.276-.108-.476-.235zm29.919-1.137c-.503-.503-.381-.9.593-1.933.637-.676 1.094-.939 1.521-.879.982.139.945 1.176-.08 2.234-.911.94-1.504 1.108-2.034.578zm1.667-1.27c.418-.437.635-.794.482-.794-.379 0-1.673 1.038-1.673 1.342 0 .449.422.254 1.191-.548zm-30.509.005c-.534-.631-1.024-.978-1.257-.888-.21.081-.382.035-.382-.1 0-.339 1.315-1.549 1.353-1.245l.066.548c.02.167.428.735.907 1.263s.8 1.076.712 1.218c-.259.42-.478.296-1.401-.795zm.941-1.233c-1.028-1.271-1.2-1.682-.7-1.682.161 0 .527-.298.813-.661.512-.65 1.54-.915 1.54-.397 0 .146-.125.265-.277.265s.086.527.529 1.172.806 1.3.806 1.455c0 .601-.537.234-1.316-.897-.535-.777-.946-1.129-1.203-1.03-.536.206-.517.259.535 1.488.509.595.926 1.18.926 1.299 0 .561-.754.1-1.654-1.011zm26.184 1.064c-.427-.427-.131-1.35.735-2.294.786-.855 1-.961 1.454-.718.641.343.739 1.589.124 1.589-.225 0-.374-.149-.333-.331.145-.631-.341-.476-1.013.324l-.676.803.62-.067c.405-.044.62.07.62.329 0 .415-1.196.7-1.531.365zm-2.504-1.758c-.765-.354-.755-.449.234-2.201.549-.973.918-1.38 1.092-1.206s.035.671-.412 1.471c-.614 1.099-.635 1.23-.232 1.458.678.383.056.819-.681.478zM13.969 7.465c-.765-1.212-.913-1.816-.482-1.97.152-.054.537.439.856 1.096s.711 1.194.871 1.194-.016-.549-.391-1.22c-.621-1.11-.692-1.692-.208-1.69.101.001.531.647.958 1.437.651 1.207.72 1.503.431 1.851-.595.717-1.292.477-2.035-.7zm2.519-.954c-.313-.754-.732-1.371-.931-1.371-.622 0-.396-.498.417-.918.551-.285.832-.317.96-.11.1.161.04.381-.134.488-.231.143-.156.521.283 1.426.46.946.526 1.304.286 1.543s-.444-.005-.882-1.058zm16.523.935l-.572-.321.638-1.565c.351-.861.682-1.609.737-1.664s.412.044.794.218c.814.371.977 1.151.189.901-.548-.174-.997.246-.556.519.451.279.3.664-.26.664-.616 0-.715.666-.132.889.48.184.53.702.066.689-.182-.005-.588-.154-.903-.331zm-14.78-.464c-.083-.134-.378-.906-.657-1.715l-.506-1.471.668-.254c.367-.14.779-.254.915-.254.398 0 .284.532-.15.698-.626.24-.5.958.132.757.376-.119.529-.048.529.247 0 .228-.119.415-.265.415s-.265.186-.265.414c0 .273.194.385.571.331.314-.046.617.053.673.218.128.375-1.436.958-1.648.615zm12.773-.172c-.577-.151-.583-.687-.028-2.35.538-1.611.421-1.5 1.248-1.186s.926.808.169.808c-.291 0-.529.119-.529.265s.119.265.265.265.265.179.265.397-.235.397-.529.397-.529.176-.529.397a.4.4 0 0 0 .397.397.4.4 0 0 1 .397.397c0 .396-.249.443-1.124.214zm-9.421-.963c-.172-.208-.34-1.017-.374-1.799-.058-1.363-.031-1.425.649-1.503.929-.107 1.328.634 1.223 2.274-.066 1.032-.176 1.261-.633 1.327-.304.043-.693-.091-.866-.298zm.838-1.434c-.156-1.028-.61-1.832-.61-1.078 0 .806.333 2.07.546 2.07.118 0 .147-.446.065-.992zm4.599 1.481c-.246-.138-.447-.423-.447-.634 0-.469.704-.512.868-.053.065.182.204.251.31.153s-.068-.53-.386-.96c-.645-.873-.623-1.572.064-2.005.352-.222.558-.188.891.145.537.537.251 1.198-.314.729-.579-.481-.477.201.15.998.383.487.456.791.272 1.135-.331.618-.854.801-1.407.491zm2.035-.158c.374-1.274.455-2.4.184-2.568-.52-.321-.008-.68.724-.508.955.225 1.3.571.772.774-.234.09-.501.54-.593 1.001-.302 1.505-.423 1.764-.826 1.764-.253 0-.348-.167-.261-.463zm-5.485-.784c-.091-.551-.167-1.389-.169-1.862-.003-.807.054-.86.923-.86.647 0 .926.12.926.397 0 .22-.235.397-.529.397s-.529.119-.529.265.179.265.397.265a.4.4 0 0 1 .397.397c0 .218-.183.397-.407.397-.283 0-.384.213-.331.7.121 1.111-.493 1.026-.678-.095zm22.054 39.232c0-.063.658-.986 1.462-2.051s1.532-2.204 1.616-2.531c.122-.471.342-.595 1.054-.595.839 0 .945-.101 1.555-1.479 3.495-7.902 3.249-16.622-.696-24.648-1.296-2.637-1.358-2.712-2.222-2.712-.778 0-1.023-.187-1.96-1.496-.589-.823-1.429-1.793-1.867-2.155s-.795-.761-.795-.885 21.55-.226 47.89-.226h47.89v2.381 2.381h-1.852-1.852v14.288 14.288h1.588 1.588v2.778 2.778H92.321c-25.684 0-46.699-.052-46.699-.115zm92.34-2.681v-1.473l-43.193.06-44.119.173c-.767.093-1.07.336-1.766 1.413l-.84 1.301h44.959 44.959zm-30.471-2.671l27.031-.176V24.411 10.167H92.563l-41.868.198c.05.109.522 1.032 1.05 2.051 1.308 2.523 2.517 6.52 3.036 10.038.367 2.483.385 3.368.121 5.837-.344 3.222-1.052 6.297-1.898 8.246l-.787 1.874-.233.595h14.237l41.268-.176zm-46.655-4.505l-3.969-2.007 4.101-2.044c2.256-1.124 4.19-1.994 4.299-1.932.543.305.036.84-1.521 1.609l-1.72.848v1.592 1.592l1.72.848c.946.466 1.72 1.001 1.72 1.188 0 .574-.522.383-4.63-1.695zm.397-1.952c0-.994-.046-1.062-.595-.893a9.29 9.29 0 0 0-1.241.515l-.646.332 1.043.55c.574.302 1.132.555 1.241.561s.198-.473.198-1.064zm7.144-.889V27.1h1.984c1.588 0 1.984.079 1.984.397 0 .305-.338.397-1.455.397h-1.455v1.455 1.455h1.191c1.014 0 1.191.078 1.191.529s-.176.529-1.179.529h-1.179l-.078 1.915c-.064 1.577-.16 1.931-.541 2.004-.426.081-.463-.263-.463-4.297zm3.881 4.148c-.066-.109.865-2.162 2.068-4.561l2.187-4.362 2.158 4.309c1.187 2.37 2.088 4.422 2.002 4.561-.332.538-.681.185-1.58-1.6l-.933-1.852h-1.738-1.738l-.839 1.851c-.761 1.678-1.261 2.199-1.588 1.655zm4.945-5.556c-.608-1.48-.73-1.497-1.361-.199l-.579 1.191h1.174 1.174zm4.536 5.615c-.165-.077-.235-1.716-.186-4.358l.079-4.234h1.539c2.024 0 2.933.649 2.933 2.095 0 .665-.178 1.159-.533 1.481-.524.475-.525.492-.03 1.033 1.046 1.145.921 2.647-.284 3.431-.615.4-3.032.779-3.518.551zm3.043-1.448c.291-.291.529-.695.529-.897 0-.694-.917-1.455-1.852-1.536l-.926-.081-.079 1.521-.079 1.521h.939c.586 0 1.138-.199 1.468-.529zm-.15-3.791c.269-.197.481-.682.481-1.104 0-.923-.671-1.455-1.837-1.455h-.875v1.455 1.455h.875c.482 0 1.092-.158 1.356-.351zm3.06 1.032V27.1h1.303c1.844 0 2.934.922 2.922 2.471-.009 1.234-.37 1.843-1.414 2.384l-.71.369 1.23 1.51c.946 1.161 1.158 1.582.916 1.82-.329.324-.733-.047-2.55-2.345l-.816-1.032.022 1.704c.019 1.422-.054 1.72-.441 1.797-.426.085-.463-.258-.463-4.293zm2.94-.61c.109-.112.277-.524.374-.917.138-.56.026-.864-.516-1.407-.411-.411-.918-.658-1.249-.609-.499.075-.554.254-.539 1.737l.032 1.767c.022.164 1.662-.331 1.897-.572zm2.881.638c0-3.676.064-4.381.407-4.513.224-.086.465-.004.536.181s.097 2.176.056 4.424c-.066 3.648-.123 4.096-.536 4.175-.426.082-.463-.261-.463-4.268zm5.556 4.126c-.972-.177-2.245-1.236-2.741-2.28-1.258-2.651.285-5.882 3.054-6.395 1.315-.244 2.862.275 2.862.96 0 .43-.087.471-.512.244-.743-.398-2.306-.336-3.201.127-.985.51-1.579 1.651-1.579 3.038 0 2.401 1.429 3.599 4.014 3.365 1.407-.128 1.513-.1 1.283.33-.138.258-.627.544-1.087.636-.871.174-1.005.173-2.093-.025zm3.896.031c-.168-.169 4.066-8.847 4.302-8.819.162.019 4.261 8.494 4.247 8.781-.005.109-.218.194-.473.188-.311-.007-.741-.614-1.31-1.852l-.847-1.841h-1.712-1.712l-.854 1.852c-.78 1.692-1.204 2.129-1.642 1.691zm5.364-4.744c0-.253-1.092-2.293-1.177-2.198-.045.05-.336.598-.648 1.216l-.567 1.124h1.196c.658 0 1.196-.064 1.196-.143zm4.762.956v-3.988H111.9c-.882 0-1.191-.103-1.191-.397 0-.327.482-.397 2.75-.397 2.2 0 2.78.079 2.902.397s-.087.397-1.023.397h-1.175l-.073 3.899c-.065 3.469-.124 3.909-.536 3.988-.424.081-.463-.244-.463-3.899zm6.186 3.584c-2.193-.993-3.148-4.213-1.892-6.376.894-1.539 2.35-2.299 4.19-2.186 1.771.109 2.937.843 3.693 2.324 1.015 1.989.408 4.573-1.372 5.84-1.048.746-3.402.949-4.619.398zm3.959-1.097c1.997-1.399 1.957-4.826-.07-6.024-.895-.529-2.803-.577-3.675-.093-2.052 1.139-2.203 4.776-.251 6.055.341.223.853.469 1.138.546.734.198 2.251-.059 2.858-.484zm3.862 1.264c-.009-.109-.038-2.086-.066-4.393l-.05-4.194 1.561.113c1.296.094 1.667.236 2.183.835.879 1.022.835 2.373-.109 3.316-.402.402-.908.79-1.124.863-.295.099-.069.515.904 1.656 1.027 1.204 1.221 1.572.926 1.758-.554.351-.535.366-1.96-1.527l-1.323-1.758-.078 1.764c-.059 1.331-.173 1.764-.463 1.764-.212 0-.392-.089-.401-.198zm2.728-4.775c.55-.476.617-1.978.107-2.401-.196-.162-.732-.371-1.191-.462l-.835-.167v1.709c0 .94.066 1.775.148 1.856.225.225 1.251-.085 1.771-.535zm-72.661-3.636c-.236-.614.195-.673 4.342-.593 3.394.066 3.831.125 3.91.537.082.425-.249.463-4.003.463-3.438 0-4.117-.065-4.248-.407zm1.269-2.079c-1.403-.621-1.786-2.399-.802-3.732.632-.856 1.066-.17.548.867-.505 1.012-.184 1.819.822 2.071.863.217 1.526-.382 1.935-1.748.359-1.2.915-1.588 2.275-1.588 1.295 0 2.254.956 2.254 2.246 0 1.036-.651 2.252-1.205 2.252-.64 0-.71-.56-.145-1.161.721-.767.709-1.613-.031-2.131-1.158-.811-1.984-.333-2.567 1.485-.171.534-.455 1.09-.63 1.235-.58.482-1.627.568-2.453.202zm27.934-5.988v-6.149l1.876.134c1.277.091 2.101.299 2.58.65 2.25 1.649 1.98 4.977-.493 6.069l-1.014.447 1.711 2.192c1.665 2.133 1.696 2.2 1.138 2.498-.34.182-.64.207-.738.062-.091-.134-.939-1.238-1.885-2.453l-1.72-2.208-.076 2.293c-.042 1.261-.181 2.293-.309 2.293s-.421.072-.651.161c-.374.144-.419-.49-.419-5.989zm3.882-.626c1.637-1.408.551-4.129-1.648-4.129h-.911v2.381 2.381h.911c.58 0 1.179-.23 1.648-.633zm6.33 6.496c-.068-.11-.101-2.545-.075-5.412l.049-5.213H94.9c-1.149 0-1.652-.101-1.65-.331.011-.923.388-1.009 4.117-.934 3.593.072 3.686.089 3.768.669.08.566-.002.595-1.664.595h-1.748l.031 5.212c.03 5.026.012 5.219-.511 5.412-.298.11-.598.111-.666.001zm5.773-.135c-.067-.174-.089-2.874-.05-5.999.071-5.666.073-5.682.667-5.767l.595-.085v5.941c0 5.777-.015 5.945-.545 6.083-.301.079-.6.001-.667-.174zm3.741.153c-.081-.081-.148-2.811-.148-6.066v-5.918l2.712.075c2.585.072 2.716.103 2.797.671.082.575.012.595-2.051.595h-2.135v1.984 1.984h1.738c1.651 0 1.734.03 1.654.595-.076.535-.253.603-1.738.674l-1.654.079v2.602c0 2.354-.049 2.615-.514 2.737-.283.074-.58.068-.661-.013zm6.996-5.889v-6.077h.667.667l-.071 5.857c-.071 5.802-.077 5.859-.667 6.077l-.595.22zm-41.672 5.39c-3.937-2.072-4.627-6.991-1.412-10.062 1.143-1.092 2.019-1.405 3.931-1.405 1.925 0 2.906.406 2.906 1.202 0 .577-.022.58-1.124.198-3.265-1.133-6.4 1.111-6.37 4.56.03 3.506 3.406 5.83 6.556 4.514.493-.206.952-.318 1.021-.249.299.299-.209 1.214-.797 1.438-1.019.387-3.824.271-4.709-.195zm7.276-5.514v-5.953h2.91 2.91v.661c0 .654-.026.661-2.249.661h-2.249v1.84 1.84l1.918.078c1.76.071 1.925.127 2.003.673.081.572.007.595-1.918.595h-2.003v2.117 2.117h2.542c2.209 0 2.521.055 2.381.419-.088.23-.161.528-.161.661s-1.369.243-3.043.243h-3.043zm38.1 0v-5.953h2.75c2.263 0 2.778.074 2.91.419.317.826.129.904-2.155.904h-2.315v1.852 1.852l1.918.001c1.87.001 1.918.017 1.918.662s-.053.661-1.852.661h-1.852v1.29c0 .709-.074 1.662-.165 2.117l-.165.827h2.547c1.401 0 2.547.109 2.547.243 0 .982-.29 1.08-3.203 1.08h-2.882zm7.408-.004v-6.025l2.072.142c4.06.278 6.13 2.266 6.13 5.887 0 3.627-2.118 5.658-6.152 5.899l-2.051.122v-6.025zm4.956 3.934c1.447-1.08 1.791-1.835 1.791-3.93 0-1.552-.11-2.093-.546-2.676-.939-1.258-1.858-1.769-3.412-1.898l-1.466-.122v4.696 4.696l1.466-.122c.888-.074 1.742-.328 2.166-.644zm-69.783-3.334c-1.471-.746-2.214-1.975-2.214-3.661 0-1.164.404-2.094.909-2.094.117 0 .148.633.068 1.406-.174 1.69.339 2.885 1.498 3.484 2.576 1.332 5.552-.948 4.825-3.697-.309-1.168-.263-1.33.317-1.107.494.189.8 1.744.578 2.93-.229 1.223-1.089 2.245-2.383 2.832-1.42.645-2.178.625-3.597-.094zm78.891-11.708l.095-1.191H92.521l-45.841.16c0 .088.367.624.816 1.191l.816 1.03h44.93 44.93z" fill="#fff"/></svg>