<svg xmlns="http://www.w3.org/2000/svg" viewBox="0 0 132.841 39.616"><path d="M61.505 39.508l-.382-.099-.457-.237-.457-.237-.331-.414-.331-.414-.077-.317-.077-.317.583-.08.583-.08.302-.059.302-.059.121.275.121.275.423.211.423.211h.519.519l.356-.184.356-.184v-.284-.284l-.163-.135-.163-.135-1.075-.185-1.075-.185-.396-.128-.396-.128-.376-.316-.376-.316-.165-.394-.165-.394v-.491-.491l.165-.394.165-.394.402-.338.402-.338.309-.118.309-.118.653-.121.653-.121.725.128.725.128.385.264.385.264.274.399.274.399.017.199.017.199-.543.165-.543.165-.191.002-.191.002-.154-.289-.154-.289-.294-.134-.294-.134h-.546-.546l-.234.125-.234.125v.295.295l.272.175.272.175.906.127.906.127.456.129.456.129.418.367.418.367.135.501.135.501-.074.541-.074.541-.301.455-.301.455-.633.321-.633.321-1.028.039-1.028.039-.382-.099zm7.053-.064l-.454-.162-.199-.165-.199-.165-.162-.389-.162-.389v-2.178-2.178h-.604-.604v-.845-.845h.646.646l.076-.984.076-.984.058-.058.058-.058.85-.061.85-.061v1.103 1.103h.785.785v.845.845h-.785-.785v1.812 1.812l.242.242.242.242h.604.604v.769.769l-.453.075-.453.075-.604-.004-.604-.004-.454-.162zm9.179 0l-.454-.162-.187-.155-.187-.155-.144-.251-.144-.251-.061-2.295-.061-2.295-.574-.037-.574-.037v-.839-.839h.646.646l.076-.984.076-.984.058-.058.058-.058.85-.061.85-.061v1.103 1.103h.785.785v.845.845h-.785-.785v1.812 1.812l.242.242.242.242h.604.604v.769.769l-.453.075-.453.075-.604-.004-.604-.004-.454-.162zm4.923.002l-.362-.161-.264-.287-.264-.287-.129-.34-.129-.34V35.14v-2.891h1.027 1.027v2.408 2.408l.128.338.128.338.143.091.143.091.33.002.33.002.394-.352.394-.352.039-2.486.039-2.486h1.018 1.018v3.623 3.623h-.966-.966v-.565-.565l-.413.483-.413.483-.476.143-.476.143-.469-.006-.469-.006-.362-.161zm8.454.058l-.362-.088-.282-.152-.282-.152-.229-.504-.229-.504-.002-2.144-.002-2.144h-.604-.604v-.845-.845h.65.65l.084-1.013.084-1.013.368-.074.368-.073h.528.528v1.087 1.087h.785.785v.84.84l-.755.036-.755.036v1.852 1.852l.234.171.234.171h.581.581v.769.769l-.453.075-.453.075-.543-.011-.543-.011-.362-.087zm5.478-.077l-.56-.172-.61-.549-.61-.549-.26-.689-.26-.689.049-1.087.049-1.087.249-.554.249-.554.457-.457.457-.457.554-.246.554-.246h.863.863l.674.33.674.33.368.445.368.445.238.768.238.768v.531.531h-2.371-2.371l.08.498.08.498.121.226.121.226.302.198.302.198h.458.458l.311-.204.311-.204.149-.36.149-.36.92.08.92.08.037.031.037.031-.263.559-.263.559-.547.481-.547.481-.608.181-.608.181-.612-.009-.612-.009-.56-.172zm2.506-4.712l-.073-.191v-.162-.162l-.313-.372-.313-.372h-.477-.477l-.288.188-.288.188-.083.204-.083.204-.1.332-.1.332h1.333 1.333zM.065 37.11l.065-2.385.154-7.458.154-7.458-.154-7.458-.154-7.458-.065-2.385L0 .124h19.126 19.126l-.057 2.144-.057 2.144-.162 7.699-.162 7.699.162 7.699.162 7.699.057 2.144.057 2.144H19.126 0zm19.251-2.146l.139-1.568.292-1.751.292-1.751.379-1.302.379-1.302.032.034.032.034.136 3.382.136 3.382.067.644.067.644.074-.074.074-.074.202-5.047.202-5.047.459-.691.459-.691.084.095.084.095.205 5.435.205 5.435.059.286.059.286.071-.071.071-.071.256-6.368.256-6.368.398-.232.398-.232.043.045.043.045.271 6.522.271 6.522.088.1.088.1.074-1.126.074-1.126.186-5.193.186-5.193.064-.625.064-.625.349-.121.349-.121.063.505.063.505.261 6.522.261 6.522.044.05.044.05.058-.058.058-.058.29-7.154.29-7.154.044-.044.044-.044.316-.079.316-.079.076 1.187.076 1.187.256 6.099.256 6.099.047.05.047.05.05-.05.05-.05.252-6.401.252-6.401.07-.986.07-.986.306-.077.306-.077.034.036.034.036.323 7.426.323 7.426.051.051.052.052.046-.05.046-.05.302-7.472.302-7.472.165-.105.165-.105.211-.002.211-.002v.634.634l.304 6.937.304 6.937.058.058.058.058.043-.05.043-.05.261-6.884.261-6.884.069-.762.069-.762.322.037.322.037.321 7.513.321 7.513.058.156.058.156.064-.181.064-.181.294-7.639.294-7.639-.294-7.639-.294-7.639-.064-.181-.064-.181-.058.156-.058.156L36 11.995l-.321 7.513-.322.037-.322.037-.069-.762-.069-.762-.261-6.884-.261-6.884-.043-.05-.043-.05-.058.058-.058.058-.304 6.937-.304 6.937v.634.634l-.211-.002-.211-.002-.165-.105-.165-.105-.302-7.472-.302-7.472-.046-.05-.046-.05-.052.052-.051.051-.323 7.426-.323 7.426-.034.036-.034.036-.306-.077-.306-.077-.07-.986-.07-.986-.252-6.401-.252-6.401-.05-.05-.05-.05-.047.05-.047.05-.256 6.099-.256 6.099-.076 1.187-.076 1.187-.316-.079-.316-.079-.044-.044-.044-.044-.29-7.154-.29-7.154-.058-.058-.058-.058-.044.05-.044.05-.261 6.522-.261 6.522-.063.505-.063.505-.349-.121-.349-.121-.064-.625-.064-.625-.186-5.193-.186-5.193-.074-1.126-.074-1.126-.088.1-.088.1-.271 6.522-.271 6.522-.043.045-.043.045-.398-.232-.398-.232-.256-6.368-.256-6.368-.071-.071-.071-.071-.059.286-.059.286-.205 5.435-.205 5.435-.084.095-.084.095-.459-.691-.459-.691-.202-5.047-.202-5.047-.074-.074-.074-.074-.067.644-.067.644-.136 3.382-.136 3.382-.032.034-.032.034-.379-1.302-.379-1.302-.292-1.751-.292-1.751-.139-1.568-.139-1.568-.036-.036-.037-.036-.084 1.121-.084 1.121-.24 1.734-.24 1.734-.405 1.607-.405 1.607-.129.222-.129.222-.002-.423-.002-.423-.138-3.563-.138-3.563-.105-.115-.105-.115-.006.236-.006.236-.22 4.923-.22 4.923-.449.677-.449.677-.092-.104-.092-.104-.212-5.676-.212-5.676-.047-.05-.047-.05-.058.058-.058.058-.274 6.386-.274 6.386-.398.232-.398.232-.042-.045-.042-.045-.267-6.582-.267-6.582-.047-.05-.048-.05-.049.05-.049.05-.256 6.22-.256 6.22-.088.717-.088.717-.329.087-.329.087-.057-.381-.057-.381-.255-6.639-.255-6.639-.054-.054-.054-.054-.046.05-.046.05-.257 6.22-.257 6.22-.073.987-.073.987-.303.076-.303.076-.052-.052-.052-.052-.297-7.221-.297-7.221-.06-.06-.06-.06-.043.05-.043.05-.262 6.461-.262 6.461-.072.927-.072.927-.301.076-.301.076-.038-.038-.038-.038-.248-6.338-.248-6.338-.074-1.129-.073-1.129-.09.103-.09.103-.263 6.582-.263 6.582-.072.877-.072.877-.293.074-.293.074-.04-.045-.04-.045-.258-6.824-.258-6.824-.077-.785-.077-.785-.095.362-.095.362-.251 6.522-.251 6.522-.07.815-.07.815h-.327-.327l-.271-7.277-.271-7.277-.062-.405-.062-.405-.069.069-.069.069-.335 7.733-.335 7.733.335 7.733.335 7.733.069.069.069.069.063-.405.063-.405.271-7.277.271-7.277h.327.327l.07.815.07.815.251 6.522.251 6.522.095.362.095.362.077-.785.077-.785.258-6.824.258-6.824.04-.045.04-.045.293.074.293.074.072.877.072.877.263 6.582.263 6.582.09.103.09.103.073-1.129.074-1.129.248-6.338.248-6.338.038-.038.038-.038.301.076.301.076.072.927.072.927.262 6.461.262 6.461.043.05.043.05.06-.06.06-.059.297-7.221.297-7.221.052-.052.052-.052.303.076.303.076.073.987.073.987.257 6.22.257 6.22.046.05.046.05.054-.054.054-.054.255-6.639.255-6.639.057-.381.057-.381.329.087.329.087.088.717.088.717.256 6.22.256 6.22.049.05.049.05.048-.05.048-.05.267-6.582.267-6.582.042-.045.042-.045.398.232.398.232.274 6.386.274 6.386.058.058.058.058.047-.05.047-.05.212-5.676.212-5.676.092-.104.092-.104.449.677.449.677.22 4.923.22 4.923.006.236.006.236.105-.115.105-.115.138-3.563.138-3.563.002-.423.002-.423.129.222.129.222.405 1.607.405 1.607.24 1.734.24 1.734.084 1.121.084 1.121.037-.036.036-.036.139-1.568zm28.771-.391l.032-4.921 1.117-.035 1.117-.035v4.956 4.956h-1.149-1.149zm4.077 1.298v-3.623h1.027 1.027v.561.561l.272-.404.272-.404.406-.237.406-.237.68-.007.68-.007.483.238.483.238.272.539.272.539v2.933 2.933h-1.027-1.027v-2.47-2.47l-.136-.299-.136-.299-.347-.144-.347-.144-.354.147-.354.147-.19.4-.19.4v2.367 2.367h-1.087-1.087v-3.623zm20.169 0v-3.623h1.027 1.027v3.623 3.623H73.36h-1.027zm0-5.374v-1.027h1.027 1.027v1.027 1.027H73.36h-1.027zm-13.058-5.775l-.437-.163-.422-.261-.422-.261-.314-.453-.314-.453-.195-.543-.195-.544-.002-.966-.002-.966.256-.682.256-.681.577-.539.577-.539.476-.161.476-.161.845.004.845.004.543.242.543.242.386.327.386.327.321.678.321.678.063.923.063.923-.198.68-.198.68-.396.521-.396.521-.652.352-.652.352-.853.043-.853.043-.437-.163zm1.831-1.536l.246-.246.116-.305.116-.305-.001-1.17-.001-1.17-.125-.449-.125-.449-.264-.185-.264-.185h-.38-.38l-.308.243-.308.243-.131.609-.131.609v.592.592l.13.605.13.605.241.307.241.307h.474.474zm15.152 1.467l-.483-.223-.261-.288-.261-.288-.134-.505-.134-.505.108-.482.108-.482.267-.375.267-.375.577-.292.577-.292.772-.122.772-.122.588-.076.588-.076-.067-.502-.067-.502-.263-.213-.263-.213h-.415-.415l-.343.177-.343.177-.123.352-.123.352-.585-.053-.585-.053-.399-.061-.399-.061.082-.265.082-.265.162-.318.162-.318.363-.305.363-.305.638-.215.638-.215 1.047.004 1.047.004.703.352.703.352.243.423.243.423.061 2.929.061 2.929h-1.057-1.057v-.568-.568l-.453.441-.453.441-.449.187-.449.187-.578-.002-.578-.002-.483-.223zm2.655-1.362l.333-.262.167-.399.167-.399v-.498-.498l-.513.083-.513.083-.503.218-.503.218-.131.245-.131.245v.315.315l.296.296.296.296h.352.352zm13.404 1.462l-.366-.106-.407-.396-.407-.396-.253-.543-.253-.544.001-1.63.001-1.63.285-.635.286-.635.4-.351.4-.351.642-.144.642-.144.507.136.507.136.368.309.368.309v-1.641-1.641h1.027 1.027v4.952 4.952h-.966-.966v-.571-.571l-.358.434-.358.434-.415.197-.415.197-.465-.011-.465-.011-.366-.106zm2.294-1.729l.287-.287.086-.574.086-.574-.064-1.026-.064-1.026-.236-.317-.236-.317-.455-.038-.455-.038-.276.26-.276.26-.133.527-.133.527.001.762.001.762.128.461.128.461.234.234.234.234h.428.428zm8.752 1.699l-.552-.157-.561-.329-.561-.329-.302-.396-.302-.396-.192-.459-.192-.459.037-.029.037-.029 1.049-.239 1.049-.239.067.268.067.268.419.368.419.368.548.082.548.082.411-.077.411-.077.321-.252.321-.252-.037-.435-.037-.435-.366-.245-.366-.245-1.212-.273-1.212-.273-.649-.391-.649-.391-.28-.532-.28-.532.002-.796.002-.796.222-.488.222-.488.56-.493.56-.493.575-.167.575-.167.906.007.906.007.608.205.608.205.453.373.453.373.238.467.238.467v.102.102l-.824.265-.824.265h-.116-.116l-.205-.348-.205-.348-.413-.196-.413-.196h-.417-.417l-.383.134-.383.134-.118.221-.118.221v.228.228l.285.268.285.268 1.427.353 1.427.353.549.339.549.339.334.54.334.54.076.555.076.555-.191.656-.191.656-.42.49-.42.49-.758.34-.758.34-1.092.042-1.092.042-.552-.157zm8.402.079l-.242-.066-.398-.186-.398-.186-.204-.376-.204-.376-.044-2.264-.044-2.265h-.598-.598l.036-.815.036-.815.618-.036.618-.036.076-.628.076-.628v-.377l.001-.377.377-.075.377-.075h.589.589v1.081 1.081l.755.036.755.036.036.815.036.815h-.791-.791l.002 1.842.002 1.842.109.173.109.173.734.053.734.053v.703.703l-.129.08-.129.08-.928.042-.928.042-.242-.066zm5.556-.09l-.483-.153-.362-.191-.362-.191-.319-.343-.319-.343-.285-.543-.285-.543.001-1.208.001-1.208.284-.63.284-.63.567-.531.567-.531.476-.16.476-.16.785.001.785.001.618.271.618.271.372.384.372.384.266.602.266.602.058.817.058.817h-2.311-2.311v.429.429l.171.33.171.33.318.17.319.17.42-.011.42-.011.308-.202.308-.202.124-.357.124-.357.923.081.923.081.035.029.035.029-.2.499-.2.499-.602.541-.602.541-.614.182-.614.182-.552-.007-.552-.007-.483-.153zm2.31-4.813l-.073-.272-.002-.133-.002-.133-.296-.32-.296-.32-.519.004-.519.004-.187.147-.187.147-.206.299-.206.299v.275.275h1.282 1.282l-.073-.272zm5.419 4.813l-.483-.153-.362-.191-.362-.191-.326-.343-.326-.343-.278-.604-.278-.604.001-1.147.001-1.147.284-.631.284-.631.522-.481.522-.481.461-.2.461-.2.845-.009.845-.009.604.271.604.271.343.326.343.326.31.604.31.604.058.876.057.876h-2.311-2.311v.417.417l.139.306.139.306.291.191.291.191.475.007.475.007.318-.208.318-.208.133-.352.133-.352.909.079.909.079.049.043.049.043-.219.485-.219.485-.57.533-.57.533-.641.19-.641.19-.552-.007-.552-.007-.483-.153zm2.355-4.726v-.185l-.171-.409-.171-.409-.244-.131-.244-.131h-.365-.365l-.302.137-.302.138-.187.394-.187.394v.193.193h1.268 1.268zm-79.319-.147l.032-4.921 1.117-.035 1.117-.035v4.956 4.956h-1.149-1.149zm4.198 1.298v-3.623h1.027 1.027l.001.513.001.513.306-.51.306-.51.469-.141.469-.141.19.073.19.073v1.03 1.03h-.308-.308l-.366.189-.366.189-.229.505-.229.505-.002 1.963-.002 1.963h-1.087-1.087zm12.681 0v-3.623h1.027 1.027v.561.561l.272-.404.272-.404.422-.248.422-.248.737.009.737.009.398.233.398.233.233.313.233.313.108.834.108.834.004 2.325.004 2.325h-1.087-1.087v-2.482-2.482l-.183-.355-.183-.355-.302-.076-.302-.076-.352.146-.352.146-.19.4-.19.4v2.367 2.367h-1.087-1.087zm18.116 0v-3.623h.966.966v.56.56l.483-.548.483-.548.604-.145.604-.145.607.146.607.146.354.354.354.354.124.448.124.448.001 2.808.001 2.808h-1.018-1.018l-.039-2.607-.039-2.607-.352-.302-.352-.302-.373.072-.373.072-.208.251-.208.251-.123.443-.123.443-.001 2.144-.001 2.144h-1.027-1.027zm47.705-1.329v-4.952h1.027 1.027v4.952 4.952h-1.027-1.027zm-59.626-9.782l-.508-.107-.277-.146-.277-.146-.447-.35-.447-.35-.339-.689-.339-.689V6.404 5.256l.312-.665.312-.665.411-.411.411-.411.524-.232.524-.232.634-.066.634-.066.695.202.695.202.553.507.553.507.231.518.231.518.09.84.09.84h-2.332-2.332v.556.556l.411.411.411.411h.441.441l.345-.178.345-.178.162-.378.162-.378.896.074.896.074.062.062.062.062-.198.416-.198.416-.428.474-.428.474-.619.266-.619.266-.618.044-.618.044zm2.091-4.983l-.077-.392-.222-.302-.222-.302-.557-.037-.557-.037-.256.137-.256.137-.171.409-.171.409v.185.185h1.283 1.283zm14.298 4.997l-.423-.092-.456-.219-.456-.219-.471-.535-.471-.535-.19-.558-.19-.558v-.94-.94l.239-.639.239-.639.367-.445.367-.445.655-.32.655-.32.71-.064.71-.064.656.192.656.192.468.388.468.388.285.612.285.612.001.196.001.196-.453.075-.453.075-.574.001-.574.001v-.286-.286l-.24-.305-.24-.305-.279-.07-.279-.07-.357.095-.357.095-.281.414-.281.414.04 1.289.04 1.289.293.311.293.311h.512.512l.313-.372.313-.372V7.36v-.232l.393.001h.393l.634.076.634.076-.001.195-.001.195-.286.604-.286.604-.407.386-.407.386-.454.189-.454.189-.694.052-.694.052-.423-.092zm6.18-.067l-.523-.17-.244-.221-.244-.221-.169-.326-.169-.326v-.642-.642l.224-.421.224-.421.471-.33.471-.33.725-.174.725-.174.815-.079.815-.079v-.397-.397l-.25-.318-.25-.318h-.48-.48l-.355.183-.355.183-.075.3-.075.3-.561-.007-.561-.007-.442-.084-.442-.084.161-.467.161-.467.326-.34.326-.34.62-.272.62-.272 1.147-.009 1.147-.009.568.219.568.219.36.41.36.41.07.518.07.518.029 2.571.029 2.571L98.058 10l-1.027-.035-.06-.523-.06-.523-.362.383-.362.383-.322.168-.322.168-.644.061-.644.061zm2.372-1.4l.4-.244.174-.416.174-.416v-.487-.487h-.248-.248l-.54.136-.54.136-.359.335-.359.335v.322.322l.129.24.129.24.264.106.264.106.181.007.181.007.4-.244zM47.333 9.887v-.14l1.538-4.811L50.41.124h1.331 1.331l1.498 4.801 1.498 4.801.055.155.055.155-1.25-.035-1.25-.035-.294-.996-.294-.996h-1.603-1.603L49.571 9l-.313 1.027h-.962-.962zm5.124-4.018l-.074-.293-.445-1.419-.445-1.419-.458 1.501-.458 1.501-.06.211-.06.211h1.037 1.037zm4.592 4.006l-.058-.152.032-3.501.032-3.501.996-.035.996-.035.001.579.001.579.231-.35.23-.35.353-.224.353-.224.534-.073.534-.073.508.137.508.137.388.462.388.462.431-.453.431-.453.542-.146.542-.146.534.073.534.073.36.211.36.211.254.341.254.341.036 3.132.036 3.132H66.37h-1.024l-.039-2.668-.039-2.668-.299-.242-.299-.242-.418.068-.418.068-.249.249-.249.248-.037 2.594-.037 2.594h-1.01-1.01l-.041-2.587-.041-2.587-.293-.311-.293-.311h-.335-.335l-.339.291-.339.291-.037 2.607-.037 2.607h-1.024-1.024zm19.631-3.526V2.66h.96.96l.037.634.037.634.195-.423.195-.423.249-.222.249-.222.492-.066.492-.066V3.61v1.103H80.2h-.346l-.319.251-.319.251-.15.262-.15.262-.061 2.114-.061 2.114-1.057.035-1.057.035zm4.831-.006V2.659h1.027 1.027v3.684 3.684h-1.027-1.027zm18.841-.006V2.648l.996.035.996.035.036.492.036.492.51-.51.51-.51.57-.086.57-.086.393.074.393.074.4.244.4.244.232.511.232.511.002 2.929.002 2.929h-1.027-1.027V7.605 5.186l-.173-.415-.173-.415-.327-.082-.327-.082-.309.109-.309.109-.245.42-.245.42-.047 2.387-.047 2.387h-1.012-1.012V6.336zM81.512 1.027V0h1.027 1.027v1.027 1.027h-1.027-1.027z" fill="#fff"/></svg>