<svg xmlns="http://www.w3.org/2000/svg" xmlns:xlink="http://www.w3.org/1999/xlink" viewBox="0 0 131.81 59.249"><g fill="#fff"><use xlink:href="#B"/><use xlink:href="#C"/><use xlink:href="#B"/><use xlink:href="#C"/></g><defs ><path id="B" d="M.737 59.113l-.261-.112-.146-.175-.146-.175-.093-.369L0 57.913l.178.059.178.059.043.246.043.246.206.16.206.16h.537.537l.128-.16.128-.16.08-.263.08-.263-.161-.22-.161-.22-.638-.158-.638-.158-.151-.303-.151-.303.115-.402.115-.402.217-.16.217-.16h.553.553l.257.257.257.257v.328.328l-.128-.079-.128-.079v-.176-.176l-.202-.202-.202-.202h-.431-.431l-.202.202-.202.202v.296.296l.16.125.16.125.441.148.441.148.233.211.233.211v.49.49l-.307.201-.307.201-.43.056-.43.056zm4.586-.084l-.285-.2v-.379-.379l.417-.254.417-.254h.472.472l.087-.273.087-.273-.174-.11-.174-.11-.289-.002-.289-.002-.267.267-.267.267-.056-.056-.056-.056.081-.212.081-.212.289-.073.289-.072.435.041.435.041v1.186V59.1h-.153-.153l-.074-.12-.074-.12-.351.183-.351.183H5.74l-.132.001-.285-.2zm1.035-.217l.215-.16.082-.417.082-.417-.369.002-.369.002-.29.078-.29.078-.077.307-.077.307.158.191.158.191h.28.28l.215-.16zm4.766.102l-.315-.315v-.382-.382l.12-.317.12-.317.289-.269.289-.269h.545.545l.094.152.094.152.097-.248.097-.248.009-.417.009-.417h.201.201l-.065.224-.065.224-.284 1.475-.284 1.475-.051.06-.051.06-.107-.174-.107-.174-.299.209-.299.209h-.234-.234zm1.093-.069l.237-.127.216-.566.216-.566-.094-.301-.094-.301-.143-.094-.143-.094-.294-.002-.294-.002-.315.315-.315.315v.621.621l.154.154.154.154h.239.239l.237-.127zm1.955.184l-.285-.2v-.375-.375l.326-.214.326-.214.527-.037.527-.037.109-.169.109-.169-.033-.192-.033-.192-.468-.039-.468-.039-.202.288-.202.288-.088-.088-.088-.088.238-.263.238-.263.584.038.584.038v1.186V59.1h-.153-.153l-.08-.13-.08-.13-.277.194-.277.194h-.199-.199zm1.109-.229l.143-.173.081-.405.081-.405h-.52-.52l-.202.202-.202.202v.222.222l.154.154.154.154h.343.343zm3.651.099l-.33-.33.067-.595.067-.595.399-.357.399-.357h.391.391l.243.13.243.13.085-.643.085-.643h.19.19l-.059.16-.059.16-.301 1.571-.301 1.571h-.17-.17l.058-.32.058-.32.156-.431.156-.431-.085-.338-.085-.338-.342-.086-.342-.086-.33.184-.33.184-.18.515-.18.515.183.378.183.378h.48.48l-.219.16-.219.16h-.238-.238zm3.193.173l-.291-.14-.077-.306-.077-.306.068-.068.068-.068.173.362.173.362.36.041.36.041.185-.153.185-.153v-.282-.282l-.641-.29-.641-.29v-.285-.285l.154-.154.154-.154h.526.526l.154.154.154.154v.191.191l-.262-.281-.262-.281-.284.002-.284.002-.179.113-.179.113.073.19.073.19.555.305.555.305.039.336.039.336-.345.271-.345.271-.207-.008-.207-.008-.291-.14zm8.145-.098l-.351-.276v-.615-.615l.256-.325.256-.325.353-.119.353-.119.319.079.319.079.191.34.191.34-.163.617-.163.617-.218.221-.218.221-.386.077-.386.077zm.99-.08l.208-.08.188-.449.188-.449v-.429-.429l-.248-.133-.248-.133h-.211-.211l-.375.375-.375.375v.514.514l.202.202.202.202h.237.237zm5.339.174l-.311-.158-.119-.36-.119-.36.08-.428.08-.428.321-.321.321-.321.317-.061.317-.061.336.174.336.174h.045.045l.085-.641.085-.641h.185.185l-.061.224-.061.224-.277 1.218-.277 1.218-.065.314-.065.314-.105-.171-.105-.171-.299.209-.299.209-.132-.002-.132-.002-.311-.158zm1.108-.594l.293-.436v-.468-.468l-.154-.154-.154-.154h-.301-.301l-.315.339-.315.339v.597.597l.159.159.159.159.317-.037.317-.038zm6.992.599l-.291-.14-.077-.308-.077-.308.072-.537.072-.537.336-.289.336-.289h.48.48l.141.141.141.141.067-.237.067-.237.084-.417.084-.417h.101.101l-.094.481-.094.481-.238 1.251-.238 1.251h-.114-.114l.074-.192.074-.192h-.06-.06l-.257.257-.257.257-.224-.008-.224-.008-.291-.14zm1.016-.323l.187-.224.153-.359.153-.359v-.272-.272l-.212-.235-.212-.235h-.272-.272l-.275.193-.275.193-.147.447-.147.447.089.291.089.291.128.16.128.16h.349.349zm1.986.215l-.338-.266v-.576-.576l.149-.28.149-.28.204-.156.204-.156.461-.003.461-.003.212.235.212.235v.343.343h-.978-.978l.081.405.081.405.143.173.143.173h.23.23l.213-.082.213-.082.115-.303.115-.303h.131.131l-.004.16-.004.16-.156.204-.156.204-.28.149-.28.149h-.184-.184l-.338-.266zm1.586-1.53v-.128l-.257-.257-.257-.257h-.201-.201l-.245.131-.245.131-.136.254-.136.254h.838.838zm-45.657 1.48l-.156-.188.145-.676.145-.676.073-.291.073-.291-.238-.008-.238-.008.289-.116.289-.116v-.317-.317l.128-.079.128-.079v.456.456l.224.008.224.008-.265.107-.265.107-.154.686-.154.686-.076.289-.076.289h.271.271v.128.128h-.241-.241zm4.272-.069l.061-.321.16-.93.16-.93h.172.172v.144.144l.183-.152.183-.152.49.04.49.04-.007.705-.007.705-.095.481-.095.481h-.14-.14l.091-.609.091-.609.07-.468.07-.468-.272-.086-.272-.086-.258.082-.258.082-.187.362-.187.362-.084.524-.084.524-.185.227-.185.227zm8.847-.015l.08-.306.219-.93.219-.93h.105.105v.154.154l.154-.154.154-.154.327.012.327.012-.414.12-.414.12-.156.286-.156.286-.14.761-.14.761-.175.058-.175.058.08-.306zm9.147-.081l-.067-.353-.084-1.379-.084-1.379h.129.129l.083 1.251.083 1.251.026.252.026.252.705-1.499.705-1.499.145-.003.145-.003.077.289.077.289.017.834.017.834.081.37.081.37.531-1.204.531-1.204.087-.289.087-.289h.179.179l-.24.559-.24.559-.322.691-.322.691-.201.492-.201.492-.162-.054-.162-.054-.13-1.529-.13-1.529-.273.577-.273.577-.467.994-.467.994h-.114-.114l-.067-.353zm6.844.233v-.12l.194-.938.194-.938.069-.189.069-.189.116.188.116.188.159-.159.159-.159.327.011.327.011-.361.108-.361.108-.183.152-.183.152-.117.466-.117.466-.082.481-.082.481h-.122-.122v-.12zm1.931-.143l.007-.314.295-1.405.295-1.405.16-.053.16-.053-.064.24-.064.24-.293 1.411-.293 1.411-.106.122-.106.122.007-.314zm4.821-.09l-.067-.353-.082-.866-.082-.866h.138.138l.007.481.007.481.089.49.089.49.48-.971.48-.971h.193.193v.561.561l.08.4.08.4.454-.961.454-.961h.166.166l-.604 1.218-.604 1.218h-.161-.161v-.89-.89l-.11-.068-.11-.068-.467.958-.467.958h-.118-.118l-.067-.353zm3.432.128l.068-.224.139-.888.139-.888.066-.106.066-.106h.129.129l-.064.224-.064.224-.214.994-.214.994h-.124-.124zm.59-3.046v-.192h.208.208l-.16.192-.16.192h-.048-.048zM.036 51.918v-.128h24.691 24.691v.128.128H24.727.036zm33.848-1.961l-.436-.293-.171-.508-.171-.508.056-.513.056-.513.307-.641.307-.641.577-.298.577-.298.721.06.721.06.317.208.317.208.148.325.148.325-.001.796-.001.796-.287.577-.287.577-.572.289-.572.289h-.659-.659l-.436-.293zm1.555-.897l.195-.156.286-.37.286-.37v-.391-.391l-.279-.297-.279-.297h-.276-.276l-.297.316-.297.316-.062.649-.062.649.229.253.229.253.205-.003.205-.003.195-.156zm-35.403.645l.001-.417.117-.449.117-.449.218-1.251.218-1.251h.613.613l-.1.481-.1.481-.292 1.635-.292 1.635H.592.036l.001-.417zm2.114-.962l.292-1.379.153-.737.153-.738h.627.627l.14.545.14.545.164.513.164.513.118-.026.118-.026.192-1 .192-1 .558-.04.558-.04-.09.553-.09.553-.246 1.283-.246 1.283-.065.289-.065.289h-.631-.631l-.341-1.117-.341-1.117-.096.187-.096.187-.16.93-.16.93h-.616-.616zm5.068 1.336v-.057L7.47 48.8l.252-1.222.083-.331.083-.331h-.584-.584l-.053-.096-.053-.096.113-.417.113-.417h1.794 1.794l-.077.353-.077.353-.049.16-.049.16h-.521-.521l-.067.175-.067.175-.283 1.396-.283 1.396-.608.039-.608.039zm2.95-.068V49.9l.319-1.717.319-1.717.068-.289.068-.289h1.796 1.796l-.077.353-.077.353-.047.155-.047.155-1.128.037-1.128.037v.253.253l.898.003.898.003.04.481.04.481H12.82h-1.084l-.078.203-.078.203v.118.118h1.163 1.163l-.073.257-.073.257-.073.257-.073.257h-1.723-1.723v-.111zm4.296-.434l.086-.545.174-.705.174-.705.149-.866.149-.866h1.369 1.369l.28.196.28.196.081.43.081.43-.199.385-.199.385-.186.071-.186.071.053.521.053.521.052.513.052.513h-.565-.565v-.626-.626l-.185-.153-.185-.153-.353.041-.353.041-.09.385-.09.385-.08.353-.08.353h-.586-.586zm2.827-2.027l.084-.136-.079-.313-.079-.313h-.511-.511v.449.449h.505.505zm1.395 2.348l.071-.224.314-1.547.314-1.547.087-.345.087-.345h.616.616l.355 1.092.355 1.092.101-.162.101-.162.15-.93.15-.93h.626.626l-.067.289-.067.289-.321 1.539-.321 1.539-.066.289-.066.289h-.631-.631l-.334-1.094-.334-1.094-.108.067-.108.067-.085.611-.085.611-.072.417-.072.417h-.636-.636zm4.179.139v-.086l.602-1.101.602-1.101.474-.898.474-.898.656-.039.656-.039v.103l.001.103.257 1.603.257 1.603.069.417.069.417h-.595-.595l-.067-.257-.067-.257h-.625-.625l-.16.257-.16.257h-.61-.61v-.086zm2.693-1.972l-.095-.518-.066-.066-.066-.066-.13.359-.13.359-.091.224-.091.224h.381.381zM28 49.962l.003-.16.254-1.148.254-1.148v-.288-.288l-.545-.039-.545-.04.045-.385.045-.385.059-.096.059-.096h1.784 1.784l-.049.16-.049.16-.075.345-.075.345-.545.04-.545.04-.296 1.283-.296 1.283-.059.289-.059.289h-.575-.575l.003-.16zm2.947.032v-.128l.199-1.122.199-1.122.154-.834.154-.834.677-.039.677-.039-.069.295-.069.295-.321 1.539-.321 1.539-.066.289-.066.289h-.575-.575zm6.695-.088l.059-.232.375-1.891.375-1.891.65-.001.65-.001.296.964.296.964.1.062.1.062.135-.609.135-.609.08-.417.08-.417h.576.576l-.072.227-.072.227-.321 1.793-.321 1.793-.001.103v.103l-.664-.039-.664-.039-.288-.945-.288-.945-.128-.128-.128-.128-.088.625-.088.625-.087.449-.087.449-.621.04-.621.04.059-.232zm4.464-.521l.388-.738.737-1.347.737-1.347.655-.038.655-.038.084.615.084.615.235 1.507.235 1.507h-.607-.607l-.067-.257-.067-.257h-.709-.709l-.081.257-.081.257h-.635-.635zm2.309-1.315v-.513l-.096.001-.096.001-.224.394-.224.394v.118.118h.321.321v-.513zm1.925 1.956l.001-.096.318-1.732.318-1.732.068-.289.068-.289h.639.639v.05.05l-.252 1.222-.252 1.222-.083.331-.083.331h.927.927l-.077.289-.077.289-.002.224-.002.224h-1.539-1.539l.001-.096zm-23.73-5.937l-.834-.099-.874-.204-.874-.204H10.025.021l.079-.128.079-.128 9.388-.003 9.388-.003-.883-.377-.883-.377-.431-.293-.431-.293-.001-3.154-.001-3.154 1.122-.145 1.122-.145.286-.082.286-.082.035 2.667.035 2.667.666.23.666.23.52.083.52.083v-3.159-3.159h.056.056l.938-.192.938-.192.289-.067.289-.067v4.492 4.492h1.732 1.732v-4.928-4.928l.417-.087.417-.087.257-.159.257-.159.632-.213.632-.213h.105.105v5.387 5.387h9.491 9.491v.125.125l-9.972.041-9.972.041-.877.183-.877.183-.123-.22-.123-.22H25.81h-1.661v.321.321l-.353-.017-.353-.017zm10.902-7.237v-5.469l.481-.189.481-.189.192-.127.192-.127.513-.236.513-.236.289-.091.289-.091v5.308 5.308l-.481.263-.481.263-.994.542-.994.542zM12.68 39.61l-.759-.758-.488-.361-.488-.361-.003-1.186-.003-1.186h1.411 1.411v2.309 2.309l-.16-.003-.16-.003-.759-.758zm27.887-3.993l-.321-.39-.479-.473-.479-.473-.002-.169-.002-.169.305-.408.305-.408.523-.962.523-.962.438-1.219.438-1.218.172-.879.172-.879.454-.339.454-.339.771-.619.771-.619.244-.134.244-.134-.083.895-.083.895-.26 1.268-.26 1.268-.375 1.154-.375 1.154-.646 1.347-.646 1.347-.563.898-.563.898-.178.029-.178.029-.321-.39zM8.63 34.643l-.449-.047-1.347-.192-1.347-.192-.944-.264-.944-.264-.531-.246-.531-.246-.661-.482-.661-.482-.395-.448-.395-.448-.208-.705-.208-.705.061-.773.061-.773.27-.53.27-.53.511-.621.511-.621.358-.365.358-.365.933-.711.933-.711.056.056.056.056-.733.537-.733.537-.481.483-.481.483-.517.641-.517.641-.258.53-.258.53-.078.655-.078.655.221.701.221.701.471.517.471.517 1.03.562 1.03.562.898.204.898.204 1.792.144 1.792.144.93-.086.93-.086v-4.735-4.735H9.509 8.08l.083 1.001.083 1.001.374 1.532.374 1.532.261.608.261.608.037.338.037.338-1.006.432-1.006.432H7.4h-.178l-.203-.481-.203-.481-.366-1.154-.366-1.154-.199-1.026-.199-1.026-.148-1.411-.148-1.411.078-1.479.078-1.479.139-1.022.139-1.022.322-1.281.322-1.281.43-1.115.43-1.115.593-1.157.593-1.157.911-1.257.911-1.257 1.039-1.026 1.039-1.026.53-.417.53-.417h.142.142v13.55 13.55l1.043-.087 1.043-.087.239-.128.239-.128-.014-.092-.014-.092.015-2.854.015-2.854h1.411 1.411v2.711 2.711l.545-.075.545-.075.675-.145.675-.145-.034-3.933-.034-3.933-2.597-.035-2.597-.035v-9.841-9.841l1.186-.48 1.186-.48 1.504-.517 1.504-.517 1.308-.184 1.308-.184.106.066.106.066v7.945 7.945h-1.347-1.347v-6.285-6.285h-.096-.096l-.513.135-.513.135-.673.188-.673.188v7.564 7.564h2.437 2.437v5.066 5.066h.214.214l1.293-.338 1.293-.338.224-.116.224-.116V18.13 5.515l-.211-.081-.211-.081-.943-.08-.943-.08V3.787 2.382l1.186.088 1.186.088.896.121.896.121 1.349.462 1.349.462.224.116.224.116v1.535 1.535h-.036-.036l-.894-.381-.894-.381-.16-.003-.16-.003v11.736V29.73l.16-.008.16-.008 1.347-.472 1.347-.472.064-12.105.064-12.105.691 1.588.691 1.588.81 1.683.81 1.683.63 1.46.63 1.46.608 1.379.608 1.379.082-.002.082-.002.403-.992.403-.992.574-1.475.574-1.475.077-.224.077-.224h.101.101l.171.274.171.274.257.463.257.463.362.641.362.641.508 1.347.508 1.347.214.746.214.747.25 1.362.25 1.362.002.456.002.456.078.292.078.292.465-.351.465-.351 1.07-1.096 1.07-1.096.434-.857.434-.857.082-.513.082-.513-.156-.651-.156-.651-.581-.646-.581-.646-.4-.209-.4-.209-.834-.291-.834-.291.192-.007.192-.007.577.175.577.175.611.287.611.287.573.637.573.637.131.471.131.471.001.745.001.745-.392.92-.392.92-.516.683-.516.683-.92.925-.92.925-.748.639-.748.639-1.24.791-1.24.791-.358.282-.358.282-2.328 1.209-2.328 1.209-1.29.521-1.29.521-1.009.369-1.009.369-.146.118-.146.118-2.034.657-2.034.657-1.548.391-1.548.391-.218.117-.218.117-1.202.256-1.202.256-1.539.266-1.539.266-2.437.249-2.437.249-2.309-.018-2.309-.018-.449-.047zm30.299-8.262l.292-.154.064-.09.064-.09 1.571-.799 1.571-.799-.002-.856-.002-.856-.127-1.219-.127-1.219-.144-.737-.144-.738h-.081-.081l-.23.609-.23.609-.493 1.347-.493 1.347-.459 1.273-.459 1.273-.113.113-.113.113-1.269-3.211-1.269-3.211-.096-.002-.096-.002v4.083 4.083l.076.076.076.076 1.011-.433 1.011-.433zm-28.02-8.827l.034-3.902-.258.233-.258.233-.572 1.167-.572 1.167-.317 1.026-.317 1.026-.265 1.132-.265 1.132v.379.379l1.379-.036 1.379-.036zm34.124-4.331l.168-.067.077.078.077.077-.246-.01-.246-.01.168-.067zm-.641-.128l.168-.067.078.078.077.077-.246-.01-.246-.01.168-.067z"/><path id="C" d="M100.931 0L86.848 14.083l-4.541 4.541-2.299 2.357h4.426v.058H79.95c.909 1.291 2.332 2.389 3.449 3.506l7.013 7.013 7.013 7.013c1.117 1.117 2.216 2.54 3.506 3.449v-.287h.058v.23l2.357-2.299 4.541-4.541 14.083-14.083v-.058L107.829 6.841 103.288 2.3 100.931 0m.058 41.56h-.058v-2.989l-.059-1.265-1.033-1.092-2.529-2.472-8.335-8.335-2.989-2.989-1.495-1.38c1.483-1.213 2.783-2.726 4.139-4.081l7.76-7.76 3.219-3.219c.311-.311.832-1.079 1.265-1.187.31-.077.783.591.977.785l2.587 2.587 9.715 9.715 2.357 2.357c.179.179.742.572.67.862-.112.45-.921.999-1.245 1.322l-3.219 3.219-8.335 8.335-2.361 2.352c-.31.31-.845.673-.996 1.096-.134.374-.035.927-.035 1.322v2.817m-.345-36.789l-.058.057.058-.057m-4.829 9.255l.493 3.391 1.026 6.553.55 3.621c.394 0 1.435.187 1.747-.059.148-.117.133-.46.157-.631l.247-1.667c.344-2.324.876-4.718.896-7.07h.058c0 2.301.505 4.686.876 6.955l.249 1.724c.028.187.013.503.14.655.232.28 1.429.092 1.781.092l.55-3.679 1.026-6.611.493-3.277h-2.012c-.027 3.206-.968 6.389-.977 9.6h-.058l-.51-4.599-.697-5.001c-.348 0-1.554-.187-1.781.092-.132.163-.106.514-.133.713l-.23 1.724c-.297 2.256-.789 4.562-.789 6.84-.297-.618-.223-1.612-.297-2.299l-.549-4.714-.189-1.667c-.015-.17-.002-.514-.15-.631-.337-.265-1.494-.059-1.92-.059m11.956 8.737l-1.782.23c.001.949.284 1.971 1.092 2.55 1.394.999 3.463.296 3.923-1.343.417-1.487-.383-2.777-1.394-3.794-.547-.549-1.277-1.089-1.547-1.839-.16-.444.04-1.522.74-1.099.366.221.402.716.405 1.099l1.839-.23c-.199-.834-.244-1.628-.977-2.212-1.42-1.13-3.55-.207-3.882 1.522-.297 1.545.671 2.709 1.698 3.736.491.491 1.122.983 1.345 1.667.193.593-.309 1.451-.995 1.03-.42-.258-.462-.875-.465-1.317m-15.061-6.955l-1.06 6.438-.55 3.564c.387 0 1.435.186 1.739-.059.129-.104.12-.366.142-.516.071-.495.184-.993.188-1.495.287 0 .955-.123 1.172.092.417.414-.052 1.556.414 1.918.324.252 1.398.059 1.805.059l-.387-2.529-1.223-7.473h-2.242m1.15 3.506l.287 2.702h-.69c.015-.744.053-2.045.402-2.702m7.128 22.303l-.058.058.058-.058m14.198 4.081c.188-.002.621.031.74-.149.328-.494-.577-1.171-.97-1.22-.97-.121-1.644.806-1.377 1.714.184.626.724 1.086 1.152 1.552.22.24.55.554.474.919-.077.371-.537.514-.786.217-.114-.136-.102-.4-.244-.5-.213-.151-.706.005-.699.286.035 1.593 2.433 1.567 2.563-.002.066-.792-.511-1.384-1.024-1.897-.285-.286-.751-.688-.652-1.149.156-.721.733-.203.824.23m-42.882 3.909h.805c.102-.802.116-1.092.977-1.092l.115 1.092h.862l-.628-3.851c-.046-.275-.047-1.151-.317-1.287-.189-.096-.864-.107-.977.099-.218.396-.202 1.089-.277 1.534l-.561 3.506m11.727-5.173v.747c.66 0 .747-.088.747-.747h-.747m10.577 0c.073 1.694.491 3.506.805 5.173h.69l.46-3.334h.058l.321 2.472.182.803.647.059.805-5.173h-.805l-.345 3.334h-.058l-.402-3.334h-.747l-.402 3.449h-.058l-.345-3.449h-.805m6.783 0v5.173h.747v-5.173h-.747m2.644 0v1.552c-.393-.349-.992-.42-1.201.173-.216.612-.064 1.483-.064 2.127 0 .291-.051.639.037.92.193.614.84.508 1.227.173v.23h.747v-5.173h-.747m1.437 0v.747c.66 0 .747-.088.747-.747h-.747m16.268 0v.747c.66 0 .747-.088.747-.747h-.747m4.196.23v1.092h-.402v.632h.402c0 .85-.241 2.143.114 2.929.13.289.833.639 1.091.313.112-.141.059-.429.059-.598-.852.033-.517-2.041-.517-2.644h.517v-.632h-.517v-1.092h-.747m4.714.492c-1.183.308-.889 2.602.402 2.294 1.211-.288.892-2.631-.402-2.294m.058.221c1.045-.227 1.271 1.639.287 1.851-1.03.223-1.254-1.641-.287-1.851m-57.023.265l.287 2.127h-.575c.005-.618.043-1.56.287-2.127m7.818 2.587h-.747c0 .212-.161 1.204-.507.624-.163-.273-.068-.776-.068-1.084h1.322c0-.583.16-1.432-.3-1.884-.729-.716-1.759.055-1.769.907-.009.707-.223 1.913.18 2.527.351.533 1.293.56 1.679.055.252-.33.21-.754.21-1.144m5.921 0h-.747c0 .245-.25 1.245-.532.571-.19-.454-.043-1.232-.043-1.721 0-.907.575-.782.575.058h.747c0-.369.04-.765-.172-1.09-.371-.568-1.305-.532-1.687-.002-.39.541-.21 1.494-.21 2.126 0 .39-.037.804.192 1.144.355.529 1.277.569 1.668.057.252-.33.21-.754.21-1.144m.575-1.38h.747c.038-.69.696-.424.483.11-.186.466-.934.673-1.198 1.155-.253.463-.275 1.487.428 1.545.354.029.592-.211.862-.395v.345h.747l-.058-2.299c0-.409.066-.893-.147-1.262-.599-1.04-1.857-.097-1.865.802m12.819 1.38h-.747c0 .212-.161 1.204-.507.624-.163-.273-.068-.776-.068-1.084h1.322c0-.583.16-1.432-.3-1.884-.729-.716-1.759.055-1.769.907-.009.707-.223 1.913.18 2.527.351.533 1.293.56 1.679.055.252-.33.21-.754.21-1.144m9.082.172c-.32.461-.595.784-.058 1.207-.461.203-.832.747-.229 1.066.528.279 1.636.248 2.055-.21.571-.623-.05-1.362-.734-1.426-.153-.014-.678.008-.678-.235 0-.2.378-.181.505-.218a.86.86 0 0 0 .63-.644c.121-.479-.201-1.559.462-1.61v-.632c-.209.023-.43.202-.632.174-.462-.065-.772-.399-1.264-.111-.644.378-.747 2.286-.058 2.639m7.243-2.727a.92.92 0 0 0-.659.658c-.079.325-.031.702-.031 1.035 0 .944-.183 2.674 1.322 2.326a.89.89 0 0 0 .694-.659c.096-.347.053-.735.053-1.092 0-.952.134-2.664-1.38-2.267m4.024 2.555h-.747c0 .245-.25 1.245-.532.571-.19-.454-.043-1.232-.043-1.721 0-.907.575-.782.575.058h.747c0-.369.04-.765-.172-1.09-.371-.568-1.305-.532-1.687-.002-.39.541-.21 1.494-.21 2.126 0 .39-.036.804.192 1.144.355.529 1.277.569 1.668.057.252-.33.21-.754.21-1.144m4.024 0h-.747c0 .212-.161 1.204-.507.624-.163-.273-.068-.776-.068-1.084h1.322c0-.583.16-1.432-.299-1.884-.732-.719-1.759.051-1.77.907-.008.724-.232 1.968.221 2.581.379.513 1.332.474 1.676-.054.212-.325.172-.72.172-1.09m5.231-2.587v1.322h.23v-.517l.632.517-.287-.575c.222-.123.35-.501.09-.68-.172-.118-.467-.068-.665-.068m-54.264.402v-.287h-.747v3.851h.747v-2.472c0-.253.032-.697.399-.675.309.019.233.531.233.733v2.414h.69v-2.472c0-.223.031-.731.394-.651.265.059.181.573.181.766v2.357h.747v-2.414c0-.377.073-.854-.095-1.205-.277-.576-.953-.15-1.285.112-.189-.658-.886-.347-1.265-.058m6.668.058v-.345h-.747v3.851h.747c0-.782-.24-2.031.043-2.759.132-.34.443-.398.762-.345v-.805c-.361.008-.551.155-.805.402m8.565 0v-.345h-.747v3.851h.747v-2.472c0-.218.034-.745.394-.659.265.063.181.58.181.774v2.357h.747c0-1.078.142-2.268-.017-3.334-.122-.819-.858-.579-1.305-.172m16.268 0v-.345h-.747v3.851h.747v-2.472c0-.223.031-.731.394-.651.265.059.181.573.181.766v2.357h.747c0-1.078.179-2.334-.027-3.391-.151-.775-.883-.49-1.295-.115m-23.626-.345v3.851h.747v-3.851h-.747m21.441 0v3.851h.747v-3.851h-.747m16.268 0v3.851h.747v-3.851h-.747m5.691 0c.14 1.081.44 2.151.655 3.219.117.581.136 1.116-.598 1.15v.69c.394 0 .787.021 1.08-.294.327-.352.348-.979.438-1.431l.667-3.334-.705.059-.157.631-.23 1.724h-.058l-.402-2.414h-.69m3.219.517v-.46c.436.034.436.426 0 .46m-49.895.92h-.575c0-1.002.575-1.002.575 0m19.314 0h-.575c0-1.002.575-1.002.575 0m3.634-.824c.276-.097.328.234.332.422v1.667c0 .184.031.455-.18.539-.266.107-.33-.17-.336-.367l-.001-1.724c.001-.175-.023-.464.185-.537m6.663-.002c.528-.208.574 1.467.158 1.59-.483.143-.485-1.462-.158-1.59m7.013 0c.23-.09.365.109.388.309.064.56.007 1.16.006 1.724 0 .192.037.507-.186.596-.231.093-.368-.108-.386-.309-.05-.566-.003-1.156-.003-1.724 0-.194-.046-.508.181-.596m7.062.826h-.575c0-1.002.575-1.002.575 0m-35.18.517v.632c-.003.223-.18.847-.532.573-.443-.345.247-1.057.532-1.205m21.042 2.047c.319-.13 1.271.192.683.44-.333.14-1.27-.201-.683-.44m-10.235 3.556c-.325.063-.608.282-.71.605-.103.329-.037.751-.037 1.092 0 .929-.321 2.901 1.207 2.625.379-.068.652-.362.745-.728.081-.319.06-.651.06-.977 0-.936.272-2.914-1.265-2.617m13.911 3.997l.058.287h.345v-2.127h-1.035v.517h.402c0 .261.062.623-.068.859-.151.274-.468.218-.579-.056-.216-.531-.043-1.439-.043-2.01 0-.199-.034-.441.043-.63.307-.752.647.252.647.573h.632c0-.359.039-.771-.181-1.081-.389-.548-1.328-.443-1.658.104-.163.271-.115.617-.115.92 0 .729-.194 1.791.085 2.472s1.008.584 1.467.172m-33.455-3.965v4.254h.632v-4.254h-.632m1.322 0v4.254h.575v-2.529h.058l.556 1.782.289.688.592.059v-4.254h-.632v2.587l-.591-1.782-.301-.746-.546-.059m2.357 0v.632h.69v3.621h.632v-3.621h.69v-.632h-2.012m2.357 0v4.254h1.667v-.632h-1.035v-1.265h.747v-.632h-.747v-1.092h1.035v-.632h-1.667m2.184 0v4.254h.632v-1.782h.345l.345 1.782h.69c-.08-.597-.425-1.236-.404-1.839.011-.297.283-.554.329-.862.216-1.462-.786-1.552-1.937-1.552m2.472 0v4.254h.575v-2.529h.058l.556 1.782.289.688.592.059v-4.254h-.632v2.587l-.583-1.782-.309-.746-.546-.059m3.162 0l-.69 4.254c.687 0 .742-.259.747-.92h.69l.115.92h.69l-.69-4.254h-.862m1.322 0v.632h.69v3.621h.632v-3.621h.69v-.632h-2.012m2.357 0v4.254h.632v-4.254h-.632m3.851 0v4.254h.575v-2.529h.058l.556 1.782.289.688.592.059v-4.254h-.632v2.587l-.591-1.782-.301-.746-.546-.059m3.162 0l-.69 4.254c.687 0 .742-.259.747-.92h.69l.115.92h.69l-.69-4.254h-.862m1.897 0v4.254h1.667c0-.751-.393-.632-1.035-.632v-3.621h-.632m3.621 0l-.69 4.254c.687 0 .742-.259.747-.92h.69l.115.92h.69l-.69-4.254h-.862m4.426 0v4.254h1.667v-.632h-1.035v-1.265h.747v-.632h-.747v-1.092h1.035v-.632h-1.667m2.184 0v4.254h.575v-2.529h.058l.556 1.782.289.688.592.059v-4.254h-.632v2.587l-.591-1.782-.301-.746-.546-.059m2.357 0c0 .578.13.632.69.632v3.621h.632v-3.621h.69v-.632h-2.013m-19.312.548c.303-.053.392.251.399.486l.001 2.069c-.002.228 0 .559-.29.61-.306.055-.392-.26-.399-.495l-.001-2.012c0-.239-.021-.604.29-.659m-10.867 1.291v-1.207c.897.002.883 1.204 0 1.207m5.461-.862l.23 1.724c-.784.229-.453-1.305-.23-1.724m10.692 0l.23 1.724c-.784.229-.453-1.305-.23-1.724m5.518 0l.23 1.724c-.784.229-.453-1.305-.23-1.724M83.322 55.97l-.019.038.019-.038m9.37 0l-.019.038.019-.038m10.692 0l-.019.038.019-.038m15.291 0l-.019.038z"/></defs></svg>
