   <svg xmlns="http://www.w3.org/2000/svg" xmlns:xlink="http://www.w3.org/1999/xlink"  viewBox="0 0 85.45 20.213"><defs><clipPath ><path d="M39.48 581.327h276v-72h-276z"/></clipPath><clipPath ><path d="M39.48 581.327h275.76v-72H39.48z"/></clipPath><clipPath ><path d="M39.48 581.327h275.76v-72H39.48z"/></clipPath><path id="D" d="M64.623 12.658c-.115.066-.211.156-.288.267v-.343h-.639v2.447h.639V13.81c0-.219.048-.375.142-.462s.237-.132.425-.132h.175v-.67h-.014c-.165 0-.313.037-.441.111"/></defs>
    <g fill="#555"><path d="M8.578 14.692l-.616-.616-2.441-2.441a1.44 1.44 0 0 0-2.042 0L.423 14.692c-.564.564-.564 1.478 0 2.042l3.056 3.056c.282.283.651.424 1.021.424s.739-.141 1.021-.424l2.441-2.439.616-.617c.563-.563.563-1.477 0-2.042m7.332 0l-.518-.518-2.539-2.539a1.44 1.44 0 0 0-2.042 0l-2.235 2.236.411.411a2.01 2.01 0 0 1 .592 1.431 2.01 2.01 0 0 1-.592 1.431l-.411.412 2.235 2.235c.282.283.651.424 1.021.424s.739-.141 1.021-.424l2.538-2.538h0l.519-.519c.563-.563.563-1.477 0-2.042m7.527 2.041l-3.055 3.056a1.44 1.44 0 0 1-2.043 0l-2.332-2.333.313-.314c.788-.788.788-2.072 0-2.861l-.313-.313 2.332-2.334a1.44 1.44 0 0 1 2.043 0l3.055 3.056c.564.564.564 1.478 0 2.042"/><path d="M23.216 13.568l-3.535-3.533c-.084-.084-.128-.2-.121-.319l.579-9.328c.014-.219.196-.39.416-.388l2.523.017c.224.002.406.181.411.404l.434 12.844c-.02.36-.295.406-.295.406-.146.044-.304.004-.412-.104m5.771-4.85h.974v-.512h-.974V7.45h1.271v-.52h-1.91v3.076h.639zm2.655 1.328c.182 0 .345-.038.485-.113a.93.93 0 0 0 .305-.252v.326h.643V7.559h-.643v.319a.99.99 0 0 0-.305-.247c-.137-.074-.298-.111-.48-.111-.208 0-.399.052-.568.155a1.1 1.1 0 0 0-.403.442 1.42 1.42 0 0 0-.148.657c0 .249.05.472.148.664a1.11 1.11 0 0 0 .403.448c.169.105.359.159.564.159m-.375-1.643c.058-.103.135-.183.229-.237a.61.61 0 0 1 .308-.081.62.62 0 0 1 .312.083c.096.055.174.136.231.24s.085.23.085.375-.029.272-.085.376a.6.6 0 0 1-.231.24c-.097.056-.201.083-.312.083a.59.59 0 0 1-.305-.085.64.64 0 0 1-.231-.246c-.058-.106-.088-.233-.088-.375a.75.75 0 0 1 .088-.371m4.392 1.482a1.12 1.12 0 0 0 .403-.449c.098-.192.148-.415.148-.664s-.05-.47-.148-.659a1.1 1.1 0 0 0-.403-.44 1.08 1.08 0 0 0-.568-.155 1.01 1.01 0 0 0-.48.111.9.9 0 0 0-.306.254V6.746h-.639v3.259h.639v-.318a.95.95 0 0 0 .306.249 1.02 1.02 0 0 0 .48.109 1.06 1.06 0 0 0 .568-.159m-.189-.734a.64.64 0 0 1-.231.244c-.095.057-.199.085-.31.085a.6.6 0 0 1-.305-.083.62.62 0 0 1-.231-.242c-.058-.105-.088-.231-.088-.373a.77.77 0 0 1 .088-.374.62.62 0 0 1 .231-.241.6.6 0 0 1 .305-.084.62.62 0 0 1 .31.081.61.61 0 0 1 .231.237.75.75 0 0 1 .088.371c0 .145-.03.273-.088.378m2.561-.958v-.669h-.014c-.165 0-.313.037-.441.111-.115.066-.211.156-.288.267v-.343h-.639v2.447h.639v-1.22c0-.219.048-.374.142-.461s.237-.132.425-.132zm.729-.895c.111 0 .204-.036.278-.107s.111-.16.111-.265-.037-.194-.111-.265-.167-.107-.278-.107-.205.036-.278.107-.111.16-.111.265.037.195.111.265a.39.39 0 0 0 .278.107"/><path d="M38.438 10.006h.639V7.558h-.639zm3.447-.844h-.687l-.003.009c-.074.217-.229.323-.472.323a.49.49 0 0 1-.404-.185c-.098-.123-.15-.301-.15-.527s.05-.407.15-.531a.49.49 0 0 1 .404-.185.5.5 0 0 1 .3.087.47.47 0 0 1 .172.24l.003.01h.687l-.004-.017c-.068-.273-.202-.488-.4-.639s-.452-.228-.753-.228c-.234 0-.445.053-.627.157s-.326.253-.429.442a1.37 1.37 0 0 0-.155.664 1.37 1.37 0 0 0 .155.664 1.11 1.11 0 0 0 .429.442c.182.104.393.157.627.157.298 0 .551-.079.751-.234s.335-.368.403-.632z"/><path d="M42.718 9.886c.169.106.359.159.564.159a1.01 1.01 0 0 0 .485-.113c.126-.067.228-.152.306-.252v.326h.643V7.559h-.643v.319a.98.98 0 0 0-.306-.247 1.01 1.01 0 0 0-.48-.111 1.08 1.08 0 0 0-.569.155 1.1 1.1 0 0 0-.403.442 1.42 1.42 0 0 0-.148.657c0 .249.05.472.148.664a1.12 1.12 0 0 0 .403.449m.189-1.483c.058-.103.135-.183.229-.237a.61.61 0 0 1 .308-.081.62.62 0 0 1 .312.084.61.61 0 0 1 .231.239.77.77 0 0 1 .086.376c0 .146-.029.272-.086.376s-.134.184-.231.239a.62.62 0 0 1-.312.083c-.108 0-.21-.029-.305-.085s-.173-.139-.231-.246a.78.78 0 0 1-.088-.376.75.75 0 0 1 .088-.371m3.039.25c0-.188.048-.334.143-.434s.226-.151.39-.151.29.05.383.151.14.246.14.434v1.35h.639V8.573c0-.328-.091-.588-.27-.772a.95.95 0 0 0-.709-.277c-.153 0-.295.03-.423.091a.87.87 0 0 0-.293.221v-.277h-.639v2.447h.639z"/><path d="M48.314 9.241c0 .508.265.765.787.765h.398v-.543h-.297c-.089 0-.153-.017-.189-.051s-.055-.09-.055-.167V8.088h.542v-.53h-.542V6.96h-.643v.599h-.288v.53h.288z"/><path d="M51.005 10.045a1.19 1.19 0 0 0 .738-.228 1.12 1.12 0 0 0 .407-.581l.005-.018h-.687l-.004.008c-.093.189-.252.285-.472.285-.153 0-.284-.049-.388-.145s-.161-.224-.177-.387h1.765l.002-.011a1.44 1.44 0 0 0 .018-.238 1.3 1.3 0 0 0-.152-.634 1.07 1.07 0 0 0-.429-.427c-.183-.1-.393-.15-.624-.15a1.3 1.3 0 0 0-.64.155c-.185.103-.331.252-.434.442s-.155.415-.155.666.053.472.157.662a1.11 1.11 0 0 0 .437.444 1.28 1.28 0 0 0 .634.157m-.574-1.504c.024-.152.086-.272.183-.358s.226-.134.373-.134c.156 0 .29.047.398.139a.47.47 0 0 1 .165.354zm4.006 1.144a.66.66 0 0 0 .118-.384.61.61 0 0 0-.132-.395c-.085-.1-.185-.173-.3-.22a3.19 3.19 0 0 0-.434-.136 1.76 1.76 0 0 1-.377-.128c-.08-.042-.115-.097-.115-.174 0-.068.028-.121.084-.159s.141-.059.248-.059c.115 0 .209.028.278.082a.3.3 0 0 1 .115.22l.001.012h.612l-.001-.014a.82.82 0 0 0-.289-.593c-.174-.146-.409-.219-.699-.219a1.27 1.27 0 0 0-.514.097.8.8 0 0 0-.338.267c-.079.112-.118.238-.118.375a.59.59 0 0 0 .128.398.79.79 0 0 0 .302.218c.116.047.265.092.445.136a2.23 2.23 0 0 1 .38.128c.079.039.112.091.112.165a.19.19 0 0 1-.092.168c-.062.044-.152.067-.265.067s-.214-.03-.291-.089-.121-.133-.132-.222l-.001-.012h-.642l.001.014c.009.151.061.29.153.413a.96.96 0 0 0 .379.295c.159.072.339.108.538.108.193 0 .365-.032.51-.095a.78.78 0 0 0 .338-.265m2.07.202c.17.106.361.159.566.159a1.02 1.02 0 0 0 .483-.111.86.86 0 0 0 .299-.256v.327h.648V6.746h-.648v1.123a.95.95 0 0 0-.321-.246c-.144-.069-.297-.104-.455-.104-.208 0-.4.052-.57.155a1.09 1.09 0 0 0-.405.442 1.42 1.42 0 0 0-.148.657c0 .249.05.472.148.664a1.11 1.11 0 0 0 .405.449m.187-1.483a.61.61 0 0 1 .536-.319.62.62 0 0 1 .312.084.61.61 0 0 1 .231.239.77.77 0 0 1 .086.376c0 .146-.029.272-.086.376s-.134.184-.231.239-.201.083-.312.083a.59.59 0 0 1-.306-.085.63.63 0 0 1-.231-.246.78.78 0 0 1-.088-.376.75.75 0 0 1 .088-.371m4.615.833l.005-.018h-.687l-.004.008c-.093.189-.252.285-.473.285-.153 0-.284-.049-.388-.145s-.161-.224-.177-.387h1.765l.002-.011a1.44 1.44 0 0 0 .018-.238c0-.237-.051-.45-.152-.633a1.07 1.07 0 0 0-.429-.427c-.183-.1-.393-.15-.624-.15a1.3 1.3 0 0 0-.64.155c-.185.103-.331.252-.434.442a1.39 1.39 0 0 0-.154.666 1.36 1.36 0 0 0 .157.661c.104.19.251.34.438.445a1.28 1.28 0 0 0 .633.157c.29 0 .538-.077.738-.228a1.12 1.12 0 0 0 .407-.581m-1.718-.695c.024-.152.086-.272.183-.358s.226-.134.373-.134a.59.59 0 0 1 .397.139.47.47 0 0 1 .165.354zM30.041 13.4c-.125-.058-.289-.117-.486-.175l-.337-.115c-.078-.032-.144-.076-.196-.128a.26.26 0 0 1-.077-.193c0-.112.034-.198.102-.256s.162-.089.277-.089c.133 0 .241.034.321.099s.122.15.128.25l.001.013h.7l-.001-.015c-.02-.277-.132-.495-.331-.65s-.459-.232-.775-.232a1.41 1.41 0 0 0-.564.108.88.88 0 0 0-.386.313.84.84 0 0 0-.138.479c0 .195.046.352.136.469s.199.204.324.262.287.115.485.173l.341.111c.08.032.149.078.202.134s.079.127.079.213c0 .106-.04.193-.117.258a.5.5 0 0 1-.328.099c-.139 0-.243-.036-.32-.105s-.12-.167-.129-.288l-.001-.013h-.682v.014c.003.188.055.354.156.492a.96.96 0 0 0 .41.319 1.47 1.47 0 0 0 .58.11 1.28 1.28 0 0 0 .587-.126c.164-.084.291-.198.377-.339a.88.88 0 0 0 .128-.461c0-.192-.047-.349-.138-.467a.89.89 0 0 0-.328-.266m2.735-.699a1.32 1.32 0 0 0-.64-.157 1.32 1.32 0 0 0-.64.157 1.16 1.16 0 0 0-.453.444c-.11.191-.165.413-.165.662s.054.471.161.662a1.13 1.13 0 0 0 .444.444c.188.104.401.157.636.157a1.34 1.34 0 0 0 .646-.157 1.18 1.18 0 0 0 .459-.444 1.28 1.28 0 0 0 .17-.662c0-.249-.055-.472-.165-.662a1.16 1.16 0 0 0-.453-.444m-.352 1.73a.62.62 0 0 1-.306.079.56.56 0 0 1-.425-.181c-.112-.12-.169-.296-.169-.521s.058-.401.173-.521a.57.57 0 0 1 .429-.181.59.59 0 0 1 .434.181c.118.12.177.296.177.521 0 .151-.029.281-.086.386s-.133.185-.228.237m1.416.6h.639v-3.26h-.639zm2.904-1.102c0 .188-.047.334-.14.434s-.223.151-.388.151a.5.5 0 0 1-.383-.151c-.093-.1-.14-.246-.14-.434v-1.346h-.639v1.433c0 .217.043.406.126.563a.86.86 0 0 0 .348.359 1.04 1.04 0 0 0 .509.122c.15 0 .291-.03.418-.091.115-.054.212-.128.289-.22v.28h.643V12.58h-.643zm2.762.267c-.074.217-.229.323-.472.323a.49.49 0 0 1-.404-.185c-.098-.123-.15-.301-.15-.527s.05-.407.15-.531a.49.49 0 0 1 .404-.185.5.5 0 0 1 .3.087.47.47 0 0 1 .172.24l.003.01h.687l-.004-.017c-.068-.273-.202-.488-.4-.639s-.452-.228-.753-.228c-.234 0-.445.053-.627.157a1.11 1.11 0 0 0-.429.442 1.37 1.37 0 0 0-.155.664 1.37 1.37 0 0 0 .155.664 1.11 1.11 0 0 0 .429.442c.182.104.393.157.627.157.298 0 .551-.079.751-.234s.335-.368.403-.632l.004-.017h-.687zm1.13.835h.639v-2.447h-.639z"/><path d="M40.959 11.577c-.111 0-.205.036-.278.107s-.111.16-.111.265.037.195.111.265a.39.39 0 0 0 .278.107c.111 0 .204-.036.278-.107s.111-.16.111-.265-.037-.194-.111-.265-.167-.107-.278-.107m2.658 1.122a1.32 1.32 0 0 0-.64-.157 1.32 1.32 0 0 0-.64.157 1.16 1.16 0 0 0-.453.444c-.11.191-.165.413-.165.662s.054.471.161.662a1.13 1.13 0 0 0 .444.444c.188.104.401.157.636.157a1.34 1.34 0 0 0 .646-.157 1.18 1.18 0 0 0 .459-.444 1.28 1.28 0 0 0 .17-.662c0-.249-.056-.472-.166-.662a1.16 1.16 0 0 0-.453-.444m-.352 1.73a.62.62 0 0 1-.306.079.56.56 0 0 1-.425-.181c-.112-.12-.169-.296-.169-.521s.059-.401.173-.521a.57.57 0 0 1 .429-.181.59.59 0 0 1 .434.181c.118.12.177.296.177.521 0 .151-.029.281-.086.386s-.133.185-.228.237m2.771-1.882a.99.99 0 0 0-.423.091.87.87 0 0 0-.293.221v-.277h-.639v2.447h.639v-1.35c0-.188.048-.334.143-.434s.226-.151.39-.151.29.05.383.151.14.246.14.434v1.35h.639v-1.433c0-.328-.091-.588-.27-.772a.95.95 0 0 0-.709-.277m3.25.145c-.183-.099-.393-.15-.624-.15a1.3 1.3 0 0 0-.64.155c-.185.103-.331.252-.434.442s-.155.415-.155.666a1.36 1.36 0 0 0 .157.662 1.11 1.11 0 0 0 .438.444 1.28 1.28 0 0 0 .634.157 1.19 1.19 0 0 0 .738-.228 1.12 1.12 0 0 0 .406-.581l.005-.018h-.686l-.004.007c-.093.189-.252.285-.473.285-.153 0-.284-.049-.388-.145s-.161-.223-.178-.387h1.766l.002-.011a1.44 1.44 0 0 0 .018-.238 1.3 1.3 0 0 0-.152-.634 1.06 1.06 0 0 0-.429-.427m-.642.38a.59.59 0 0 1 .397.139.47.47 0 0 1 .165.354h-1.119c.024-.152.086-.272.183-.358s.226-.134.373-.134m3.137.638a3.29 3.29 0 0 0-.434-.136c-.174-.044-.297-.086-.377-.128s-.115-.097-.115-.174a.18.18 0 0 1 .084-.159.44.44 0 0 1 .248-.059.44.44 0 0 1 .278.082.3.3 0 0 1 .115.22l.001.012h.612l-.001-.014a.82.82 0 0 0-.289-.593c-.174-.146-.409-.219-.699-.219a1.27 1.27 0 0 0-.514.097.8.8 0 0 0-.338.267c-.079.112-.118.238-.118.375a.59.59 0 0 0 .128.398.78.78 0 0 0 .302.218 3.25 3.25 0 0 0 .445.136 2.23 2.23 0 0 1 .38.128c.079.039.113.091.113.164a.19.19 0 0 1-.093.168c-.063.044-.152.067-.265.067s-.214-.03-.291-.089-.121-.133-.132-.222l-.001-.012h-.642v.014a.76.76 0 0 0 .153.414.96.96 0 0 0 .379.295 1.29 1.29 0 0 0 .538.108c.193 0 .365-.032.51-.095a.78.78 0 0 0 .338-.265.66.66 0 0 0 .118-.383.61.61 0 0 0-.132-.395.78.78 0 0 0-.3-.22m1.989 1.319h1.796v-.525h-1.157v-.781h1.026v-.512h-1.026v-.737h1.157v-.525h-1.796zm6.092-2.205c-.184-.184-.429-.277-.728-.277a.99.99 0 0 0-.494.128c-.144.081-.257.189-.336.321-.081-.14-.195-.25-.339-.327a1.07 1.07 0 0 0-.513-.122.96.96 0 0 0-.414.089c-.113.053-.208.125-.284.214v-.268h-.639v2.447h.639v-1.35c0-.185.048-.328.143-.425a.52.52 0 0 1 .39-.146c.161 0 .29.049.383.146s.14.241.14.425v1.35h.639v-1.35c0-.185.048-.328.142-.425s.224-.146.386-.146.29.049.383.146.14.24.14.425v1.35h.639v-1.433c0-.328-.093-.588-.277-.772zm2.846-.127a1.08 1.08 0 0 0-.568-.155 1 1 0 0 0-.48.113.97.97 0 0 0-.305.249v-.322h-.639v3.6h.639v-1.473a1.03 1.03 0 0 0 .309.248.99.99 0 0 0 .476.111c.208 0 .4-.054.568-.159a1.12 1.12 0 0 0 .403-.449c.098-.192.148-.415.148-.664s-.05-.47-.148-.659a1.1 1.1 0 0 0-.403-.44m-.189 1.477a.64.64 0 0 1-.231.244.59.59 0 0 1-.309.085.6.6 0 0 1-.306-.083.62.62 0 0 1-.231-.242c-.058-.105-.087-.231-.087-.373a.77.77 0 0 1 .087-.374.61.61 0 0 1 .231-.241.6.6 0 0 1 .306-.084.62.62 0 0 1 .31.081c.095.054.173.133.231.237a.75.75 0 0 1 .088.371c0 .145-.03.273-.088.378"/><use xlink:href="#D"/><path d="M67.178 12.692c-.183-.099-.393-.15-.624-.15a1.3 1.3 0 0 0-.64.155c-.185.103-.331.252-.434.442s-.155.415-.155.666a1.36 1.36 0 0 0 .157.662c.104.191.251.34.437.444a1.28 1.28 0 0 0 .634.157 1.19 1.19 0 0 0 .738-.228 1.12 1.12 0 0 0 .407-.581l.005-.018h-.686l-.004.007c-.093.189-.252.285-.472.285-.153 0-.284-.049-.388-.145s-.162-.223-.178-.387h1.766l.002-.011a1.44 1.44 0 0 0 .018-.238c0-.237-.052-.45-.152-.634s-.246-.327-.429-.427m-.642.38c.156 0 .29.047.398.139a.47.47 0 0 1 .165.354H65.98c.025-.152.086-.272.183-.358s.226-.134.373-.134m3.137.638a3.32 3.32 0 0 0-.434-.136c-.17-.043-.297-.086-.377-.128s-.115-.097-.115-.174a.18.18 0 0 1 .084-.159.44.44 0 0 1 .248-.059c.116 0 .209.028.277.082s.107.128.115.22l.001.012h.612l-.001-.014a.82.82 0 0 0-.289-.593c-.174-.146-.409-.219-.699-.219a1.27 1.27 0 0 0-.514.097.8.8 0 0 0-.338.267.64.64 0 0 0-.118.375.59.59 0 0 0 .128.398.78.78 0 0 0 .302.218c.116.047.265.092.445.136a2.26 2.26 0 0 1 .38.128c.075.037.112.091.112.164s-.03.124-.092.168-.152.067-.265.067-.214-.03-.291-.089-.121-.133-.132-.222l-.001-.012h-.642l.001.014a.76.76 0 0 0 .153.414.96.96 0 0 0 .379.295 1.29 1.29 0 0 0 .538.108c.193 0 .365-.032.51-.095a.78.78 0 0 0 .338-.265.66.66 0 0 0 .118-.383c-.003-.163-.047-.296-.132-.395a.78.78 0 0 0-.3-.22"/><path d="M72.349 12.9a1 1 0 0 0-.305-.247c-.137-.073-.299-.111-.48-.111-.208 0-.399.052-.568.155a1.09 1.09 0 0 0-.403.442c-.098.191-.148.412-.148.657s.05.472.148.664a1.12 1.12 0 0 0 .402.449 1.05 1.05 0 0 0 .564.159c.182 0 .345-.038.485-.113.126-.067.228-.152.305-.252v.326h.643v-2.447h-.643zm-1.165.525a.61.61 0 0 1 .536-.319.62.62 0 0 1 .312.084c.096.055.174.135.231.239s.086.23.086.376-.029.272-.086.375-.134.184-.231.24a.62.62 0 0 1-.312.083c-.108 0-.211-.029-.306-.085s-.173-.139-.231-.246-.088-.233-.088-.376.029-.267.088-.371"/><use xlink:href="#D" x="9.889"/><path d="M75.696 11.577c-.111 0-.204.036-.278.107s-.111.16-.111.265.037.195.111.265.167.107.278.107.204-.036.278-.107.111-.16.111-.265-.037-.194-.111-.265-.167-.107-.278-.107"/><path d="M75.372 15.029h.639v-2.447h-.639zm2.983-2.129a1 1 0 0 0-.305-.247 1.01 1.01 0 0 0-.48-.111c-.208 0-.399.052-.568.155a1.09 1.09 0 0 0-.403.442c-.098.191-.148.412-.148.657s.05.472.148.664a1.12 1.12 0 0 0 .402.449 1.05 1.05 0 0 0 .564.159c.182 0 .345-.038.485-.113a.93.93 0 0 0 .305-.252v.326h.643v-2.447h-.643zm-1.165.525a.61.61 0 0 1 .536-.319.62.62 0 0 1 .312.084c.096.055.174.135.231.239s.086.23.086.376-.029.272-.086.375-.134.184-.231.24a.62.62 0 0 1-.312.083c-.108 0-.211-.029-.306-.085s-.173-.139-.231-.246a.78.78 0 0 1-.088-.376.75.75 0 0 1 .088-.371m2.402 1.604h.639v-3.26h-.639zm2.932-2.337c-.183-.099-.393-.15-.624-.15a1.3 1.3 0 0 0-.64.155c-.185.103-.331.252-.434.442s-.155.415-.155.666.053.472.157.662a1.11 1.11 0 0 0 .438.444 1.28 1.28 0 0 0 .634.157 1.19 1.19 0 0 0 .738-.228 1.12 1.12 0 0 0 .407-.581l.005-.018h-.686l-.004.007c-.093.189-.252.285-.472.285-.153 0-.284-.049-.388-.145s-.162-.223-.178-.387h1.766l.002-.011a1.44 1.44 0 0 0 .018-.238c0-.237-.052-.45-.152-.634s-.246-.327-.429-.427m-.642.38c.156 0 .29.047.398.139a.47.47 0 0 1 .165.354h-1.119c.025-.152.086-.272.183-.358s.226-.134.373-.134m3.433.858c-.084-.099-.185-.173-.3-.22a3.29 3.29 0 0 0-.434-.136c-.17-.043-.297-.086-.377-.128s-.115-.097-.115-.174a.18.18 0 0 1 .084-.159c.057-.039.14-.059.248-.059a.44.44 0 0 1 .278.082.3.3 0 0 1 .115.22l.001.012h.612l-.001-.015c-.018-.247-.115-.447-.289-.592s-.409-.219-.699-.219a1.27 1.27 0 0 0-.514.097c-.146.065-.259.155-.338.267s-.118.238-.118.375c0 .165.043.299.128.398a.78.78 0 0 0 .302.218 3.22 3.22 0 0 0 .445.136 2.23 2.23 0 0 1 .38.128c.079.039.113.091.113.165s-.03.123-.092.168-.152.067-.265.067-.213-.03-.291-.089-.121-.133-.132-.222l-.002-.012h-.642l.001.014a.75.75 0 0 0 .153.413c.093.124.22.223.379.295s.339.108.539.108a1.28 1.28 0 0 0 .51-.095.78.78 0 0 0 .338-.265.66.66 0 0 0 .118-.384.61.61 0 0 0-.132-.395m-62.366 6.285a.97.97 0 0 1-.968-.968.97.97 0 0 1 .968-.968.97.97 0 0 1 .968.968.97.97 0 0 1-.968.968m0-1.854c-.489 0-.886.397-.886.886a.89.89 0 0 0 .886.886.89.89 0 0 0 .886-.886c0-.489-.398-.886-.886-.886"/><path d="M22.986 18.941v.614h-.081v-.458l-.204.458h-.057l-.205-.459v.459h-.081v-.614h.087l.227.507.227-.507z"/><path d="M23.453 19.555l-.147-.253h-.098v.253h-.081v-.618h.2c.047 0 .086.008.119.024s.056.038.072.065.024.058.024.093a.18.18 0 0 1-.037.113c-.025.032-.061.054-.11.065l.155.259zm-.245-.318h.119c.044 0 .077-.011.098-.032s.033-.05.033-.086-.011-.065-.032-.085-.054-.03-.099-.03h-.119z"/></g></svg>